<?xml version="1.0" encoding="UTF-8"?>
<!DOCTYPE svg PUBLIC "-//W3C//DTD SVG 1.1//EN" "http://www.w3.org/Graphics/SVG/1.1/DTD/svg11.dtd">
<!-- Creator: CorelDRAW X8 -->
<svg xmlns="http://www.w3.org/2000/svg" xml:space="preserve" width="3272px" height="2911px" version="1.1" style="shape-rendering:geometricPrecision; text-rendering:geometricPrecision; image-rendering:optimizeQuality; fill-rule:evenodd; clip-rule:evenodd"
viewBox="0 0 33509 29810"
 xmlns:xlink="http://www.w3.org/1999/xlink"
 enable-background="new 0 0 512 512">
 <defs>
  <style type="text/css">
   <![CDATA[
    .str1 {stroke:#BDBFC1;stroke-width:24.1889}
    .str0 {stroke:#FEFEFE;stroke-width:163.832}
    .fil5 {fill:#BDBFC1}
    .fil3 {fill:#ED3237}
    .fil1 {fill:#020202}
    .fil0 {fill:#FAEBEB}
    .fil2 {fill:#373435;fill-rule:nonzero}
    .fil4 {fill:#ED3237;fill-rule:nonzero}
   ]]>
  </style>
 </defs>
 <g id="Camada_x0020_1">
  <metadata id="CorelCorpID_0Corel-Layer"/>
  <rect class="fil0" x="12" width="33485" height="24781"/>
  <g id="_2729772115584">
   <g>
    <path class="fil1" d="M17072 14272c0,409 -331,741 -740,741l0 0c-409,0 -741,-332 -741,-741l0 -1273c0,-409 332,-741 741,-741l0 0c409,0 740,332 740,741l0 1273z"/>
    <g>
     <path class="fil1" d="M16800 11830c391,162 664,520 664,935l0 1767c0,415 -273,773 -664,935l0 949 3820 0 0 -3188c0,-1806 -1513,-3270 -3379,-3270l-441 0 0 1872z"/>
     <path class="fil1" d="M12043 16689l0 2474c0,1806 1513,3270 3379,3270l1819 0c1866,0 3379,-1464 3379,-3270l0 -2474 -8577 0z"/>
     <path class="fil1" d="M15864 16416l0 -949c-392,-162 -664,-520 -664,-935l0 -1767c0,-415 272,-773 664,-935l0 -1872 -442 0c-1866,0 -3379,1464 -3379,3270l0 3188 3821 0z"/>
    </g>
   </g>
  </g>
  <path class="fil2" d="M2108 8254c0,165 112,245 248,245 134,0 246,-80 246,-245l0 -344 -129 0 0 331c0,102 -47,141 -117,141 -72,0 -119,-39 -119,-141l0 -331 -129 0 0 344z"/>
  <path id="1" class="fil2" d="M2653 8427c33,39 90,74 184,74 128,0 186,-60 186,-141 0,-53 -28,-93 -103,-119 -81,-28 -115,-23 -115,-51 0,-14 12,-26 41,-26 44,0 71,16 88,31l60 -83c-30,-28 -75,-54 -145,-54 -85,0 -164,45 -164,135 0,63 38,96 96,116 65,22 122,24 122,53 0,20 -19,33 -62,33 -50,0 -93,-19 -115,-46l-73 78z"/>
  <path id="2" class="fil2" d="M3065 8283c0,131 94,217 230,217 65,0 125,-19 181,-77l-73 -70c-29,28 -58,41 -102,41 -65,0 -108,-31 -110,-81l316 0c1,-19 1,-40 1,-40 0,-118 -85,-213 -215,-213 -131,0 -228,85 -228,219l0 4zm127 -51c4,-39 47,-69 101,-69 49,0 90,31 90,69l-191 0z"/>
  <path id="3" class="fil2" d="M3834 8280c0,124 104,222 233,222 129,0 233,-98 233,-222 0,-124 -104,-222 -233,-222 -129,0 -233,98 -233,222zm125 0c0,-60 47,-109 108,-109 60,0 108,49 108,109 0,61 -48,109 -108,109 -61,0 -108,-48 -108,-109z"/>
  <path id="4" class="fil2" d="M4647 8490l126 0 0 -55c11,36 60,62 123,62 119,0 208,-95 208,-217 0,-120 -89,-217 -208,-217 -63,0 -112,26 -123,63l0 -216 -126 0 0 580zm118 -210c0,-58 48,-104 109,-104 59,0 106,46 106,104 0,58 -47,104 -106,104 -61,0 -109,-46 -109,-104z"/>
  <path id="5" class="fil2" d="M5153 8280c0,124 104,222 233,222 129,0 233,-98 233,-222 0,-124 -104,-222 -233,-222 -129,0 -233,98 -233,222zm125 0c0,-60 47,-109 108,-109 60,0 108,49 108,109 0,61 -48,109 -108,109 -61,0 -108,-48 -108,-109z"/>
  <path id="6" class="fil2" d="M5684 8315c0,155 97,175 170,175 14,0 36,0 36,0l0 -113c0,0 -5,0 -6,0 -54,0 -79,-22 -79,-81l0 -112 94 0 0 -113 -94 0 0 -161 -121 0 0 405z"/>
  <path id="7" class="fil2" d="M6011 8007l70 10c4,-23 17,-30 34,-30 40,0 69,36 125,36 68,0 101,-44 110,-111l-70 -10c-5,25 -17,35 -36,35 -40,0 -69,-36 -124,-36 -63,0 -101,46 -109,106zm-77 273c0,122 89,217 208,217 64,0 113,-26 125,-62l0 55 125 0 0 -419 -125 0 0 55c-12,-37 -61,-63 -125,-63 -119,0 -208,97 -208,217zm126 0c0,-58 46,-104 106,-104 59,0 109,46 109,104 0,58 -50,104 -109,104 -60,0 -106,-46 -106,-104z"/>
  <path id="8" class="fil2" d="M6458 8280c0,124 104,222 234,222 129,0 233,-98 233,-222 0,-124 -104,-222 -233,-222 -130,0 -234,98 -234,222zm126 0c0,-60 47,-109 108,-109 60,0 108,49 108,109 0,61 -48,109 -108,109 -61,0 -108,-48 -108,-109z"/>
  <path id="9" class="fil2" d="M7253 8283c0,131 94,217 231,217 64,0 125,-19 180,-77l-73 -70c-28,28 -58,41 -101,41 -66,0 -108,-31 -111,-81l316 0c2,-19 2,-40 2,-40 0,-118 -86,-213 -216,-213 -130,0 -228,85 -228,219l0 4zm128 -51c3,-39 46,-69 100,-69 49,0 90,31 90,69l-190 0z"/>
  <path id="10" class="fil2" d="M7726 8427c32,39 90,74 184,74 128,0 185,-60 185,-141 0,-53 -27,-93 -103,-119 -81,-28 -115,-23 -115,-51 0,-14 13,-26 41,-26 44,0 72,16 88,31l60 -83c-29,-28 -75,-54 -145,-54 -85,0 -164,45 -164,135 0,63 39,96 97,116 64,22 121,24 121,53 0,20 -19,33 -62,33 -49,0 -92,-19 -115,-46l-72 78z"/>
  <path id="11" class="fil2" d="M8138 8280c0,121 89,217 207,217 65,0 114,-25 125,-62l0 215 125 0 0 -579 -125 0 0 55c-11,-36 -60,-63 -125,-63 -118,0 -207,96 -207,217zm125 0c0,-58 46,-104 106,-104 60,0 109,46 109,104 0,58 -49,104 -109,104 -60,0 -106,-46 -106,-104z"/>
  <path id="12" class="fil2" d="M8672 8321c0,123 95,180 202,180 108,0 203,-57 203,-180l0 -250 -127 0 0 239c0,56 -35,77 -76,77 -40,0 -75,-21 -75,-77l0 -239 -127 0 0 250z"/>
  <path id="13" class="fil2" d="M9141 8283c0,131 94,217 230,217 64,0 125,-19 180,-77l-73 -70c-28,28 -58,41 -101,41 -66,0 -108,-31 -111,-81l316 0c2,-19 2,-40 2,-40 0,-118 -86,-213 -216,-213 -130,0 -227,85 -227,219l0 4zm127 -51c3,-39 46,-69 100,-69 50,0 90,31 90,69l-190 0z"/>
  <path id="14" class="fil2" d="M9648 8490l125 0 0 -204c0,-68 42,-109 113,-109 16,0 30,2 41,4l0 -117c-6,-1 -20,-3 -32,-3 -57,0 -102,25 -122,67l0 -57 -125 0 0 419z"/>
  <path id="15" class="fil2" d="M9946 8280c0,122 89,217 208,217 64,0 113,-26 124,-62l0 55 125 0 0 -580 -125 0 0 216c-11,-37 -60,-63 -124,-63 -119,0 -208,97 -208,217zm125 0c0,-58 46,-104 106,-104 60,0 109,46 109,104 0,58 -49,104 -109,104 -60,0 -106,-46 -106,-104z"/>
  <path id="16" class="fil2" d="M10470 8280c0,124 104,222 233,222 129,0 233,-98 233,-222 0,-124 -104,-222 -233,-222 -129,0 -233,98 -233,222zm125 0c0,-60 47,-109 108,-109 60,0 108,49 108,109 0,61 -48,109 -108,109 -61,0 -108,-48 -108,-109z"/>
  <path id="17" class="fil2" d="M2382 9278c0,122 89,217 208,217 64,0 113,-26 125,-62l0 55 124 0 0 -580 -124 0 0 216c-12,-37 -61,-63 -125,-63 -119,0 -208,97 -208,217zm125 0c0,-58 46,-104 106,-104 60,0 109,46 109,104 0,58 -49,104 -109,104 -60,0 -106,-46 -106,-104z"/>
  <path id="18" class="fil2" d="M2906 9278c0,124 104,222 234,222 128,0 232,-98 232,-222 0,-124 -104,-222 -232,-222 -130,0 -234,98 -234,222zm125 0c0,-60 47,-109 109,-109 59,0 108,49 108,109 0,61 -49,109 -108,109 -62,0 -109,-48 -109,-109z"/>
  <path id="19" class="fil2" d="M3719 9488l126 0 0 -236c0,-48 28,-82 68,-82 41,0 62,31 62,78l0 240 125 0 0 -236c0,-48 28,-82 69,-82 41,0 62,31 62,78l0 240 125 0 0 -255c0,-108 -53,-173 -149,-173 -59,0 -113,14 -140,66 -19,-43 -57,-66 -114,-66 -51,0 -92,24 -108,61l0 -52 -126 0 0 419z"/>
  <path id="20" class="fil2" d="M4419 9278c0,124 104,222 233,222 129,0 233,-98 233,-222 0,-124 -104,-222 -233,-222 -129,0 -233,98 -233,222zm125 0c0,-60 47,-109 108,-109 60,0 108,49 108,109 0,61 -48,109 -108,109 -61,0 -108,-48 -108,-109z"/>
  <path id="21" class="fil2" d="M4948 9319c0,123 95,180 203,180 107,0 202,-57 202,-180l0 -250 -127 0 0 239c0,56 -35,77 -75,77 -41,0 -76,-21 -76,-77l0 -239 -127 0 0 250z"/>
  <path id="22" class="fil2" d="M5398 9425c33,39 90,74 184,74 128,0 186,-60 186,-141 0,-53 -28,-93 -103,-119 -81,-28 -115,-23 -115,-51 0,-14 12,-26 41,-26 44,0 71,16 88,31l60 -83c-30,-28 -75,-54 -145,-54 -85,0 -164,45 -164,135 0,63 38,96 96,116 65,22 122,24 122,53 0,20 -19,33 -62,33 -50,0 -93,-19 -115,-46l-73 78z"/>
  <path id="23" class="fil2" d="M5810 9281c0,131 94,217 230,217 64,0 125,-19 181,-77l-73 -70c-29,28 -58,41 -102,41 -65,0 -108,-31 -110,-81l316 0c1,-19 1,-40 1,-40 0,-118 -85,-213 -215,-213 -131,0 -228,86 -228,219l0 4zm127 -51c4,-39 47,-69 101,-69 49,0 90,31 90,69l-191 0z"/>
  <path id="24" class="fil2" d="M6605 9648l126 0 0 -215c11,37 60,62 124,62 119,0 208,-96 208,-217 0,-121 -89,-217 -208,-217 -64,0 -113,27 -124,63l0 -55 -126 0 0 579zm118 -370c0,-58 49,-104 109,-104 59,0 106,46 106,104 0,58 -47,104 -106,104 -60,0 -109,-46 -109,-104z"/>
  <path id="25" class="fil2" d="M7111 9278c0,122 89,217 208,217 64,0 113,-26 125,-62l0 55 124 0 0 -419 -124 0 0 55c-12,-37 -61,-63 -125,-63 -119,0 -208,97 -208,217zm125 0c0,-58 46,-104 106,-104 60,0 109,46 109,104 0,58 -49,104 -109,104 -60,0 -106,-46 -106,-104z"/>
  <path id="26" class="fil2" d="M7653 9488l126 0 0 -204c0,-68 41,-109 112,-109 16,0 30,2 42,4l0 -117c-7,-1 -21,-2 -33,-2 -57,0 -102,24 -121,66l0 -57 -126 0 0 419z"/>
  <path id="27" class="fil2" d="M7957 9278c0,122 89,217 208,217 64,0 114,-26 125,-62l0 55 125 0 0 -419 -125 0 0 55c-11,-37 -61,-63 -125,-63 -119,0 -208,97 -208,217zm126 0c0,-58 46,-104 106,-104 60,0 109,46 109,104 0,58 -49,104 -109,104 -60,0 -106,-46 -106,-104z"/>
  <path id="28" class="fil2" d="M8761 9278c0,119 89,212 208,212 62,0 110,-21 128,-50l0 18c0,70 -38,103 -113,103 -53,0 -91,-21 -108,-49l-101 55c32,60 111,104 215,104 167,0 228,-105 228,-216l0 -386 -124 0 0 55c-12,-37 -61,-63 -125,-63 -119,0 -208,97 -208,217zm125 0c0,-58 46,-104 106,-104 60,0 109,46 109,104 0,58 -49,103 -109,103 -60,0 -106,-45 -106,-103z"/>
  <path id="29" class="fil2" d="M9363 9034c39,0 72,-32 72,-71 0,-40 -33,-71 -72,-71 -38,0 -71,31 -71,71 0,39 33,71 71,71zm-62 454l125 0 0 -419 -125 0 0 419z"/>
  <path id="30" class="fil2" d="M9512 9488l126 0 0 -204c0,-68 41,-109 112,-109 16,0 30,2 41,4l0 -117c-6,-1 -20,-2 -32,-2 -57,0 -102,24 -121,66l0 -57 -126 0 0 419z"/>
  <path id="31" class="fil2" d="M9816 9278c0,122 89,217 208,217 64,0 113,-26 125,-62l0 55 125 0 0 -419 -125 0 0 55c-12,-37 -61,-63 -125,-63 -119,0 -208,97 -208,217zm126 0c0,-58 46,-104 106,-104 59,0 108,46 108,104 0,58 -49,104 -108,104 -60,0 -106,-46 -106,-104z"/>
  <path id="32" class="fil2" d="M10359 9488l125 0 0 -204c0,-68 42,-109 112,-109 16,0 30,2 42,4l0 -117c-7,-1 -21,-2 -32,-2 -58,0 -103,24 -122,66l0 -57 -125 0 0 419z"/>
  <path id="33" class="fil2" d="M3582 10423c32,39 90,74 184,74 128,0 185,-60 185,-141 0,-53 -27,-93 -103,-119 -81,-28 -115,-23 -115,-51 0,-14 13,-26 41,-26 44,0 72,16 88,31l60 -83c-29,-28 -75,-54 -145,-54 -84,0 -163,45 -163,135 0,63 38,96 96,116 64,22 121,24 121,53 0,20 -19,33 -62,33 -49,0 -92,-19 -115,-46l-72 78z"/>
  <path id="34" class="fil2" d="M3994 10279c0,131 94,217 230,217 64,0 125,-19 181,-77l-74 -70c-28,28 -58,41 -101,41 -66,0 -108,-31 -111,-81l316 0c2,-19 2,-40 2,-40 0,-118 -86,-213 -215,-213 -131,0 -228,86 -228,219l0 4zm127 -51c3,-39 46,-69 101,-69 49,0 89,31 89,69l-190 0z"/>
  <path id="35" class="fil2" d="M4497 10317c0,123 95,180 202,180 107,0 202,-57 202,-180l0 -250 -126 0 0 239c0,56 -35,77 -76,77 -41,0 -76,-21 -76,-77l0 -239 -126 0 0 250z"/>
  <path id="36" class="fil2" d="M5271 10486l126 0 0 -236c0,-48 28,-82 68,-82 41,0 61,31 61,78l0 240 126 0 0 -236c0,-48 28,-82 69,-82 41,0 62,31 62,78l0 240 125 0 0 -255c0,-108 -53,-173 -149,-173 -59,0 -113,14 -140,66 -19,-43 -57,-66 -114,-66 -51,0 -92,24 -108,61l0 -52 -126 0 0 419z"/>
  <path id="37" class="fil2" d="M5971 10276c0,124 104,222 233,222 129,0 233,-98 233,-222 0,-124 -104,-222 -233,-222 -129,0 -233,98 -233,222zm125 0c0,-60 47,-109 108,-109 60,0 108,49 108,109 0,61 -48,109 -108,109 -61,0 -108,-48 -108,-109z"/>
  <path id="38" class="fil2" d="M6482 10276c0,122 89,217 208,217 64,0 113,-26 125,-62l0 55 124 0 0 -580 -124 0 0 216c-12,-37 -61,-63 -125,-63 -119,0 -208,97 -208,217zm126 0c0,-58 45,-104 105,-104 60,0 109,46 109,104 0,58 -49,104 -109,104 -60,0 -105,-46 -105,-104z"/>
  <path id="39" class="fil2" d="M7006 10279c0,131 94,217 230,217 64,0 125,-19 181,-77l-73 -70c-29,28 -59,41 -102,41 -65,0 -108,-31 -110,-81l316 0c1,-19 1,-40 1,-40 0,-118 -85,-213 -215,-213 -131,0 -228,86 -228,219l0 4zm127 -51c4,-39 47,-69 101,-69 49,0 90,31 90,69l-191 0z"/>
  <polygon id="40" class="fil2" points="7513,10486 7639,10486 7639,9906 7513,9906 "/>
  <path id="41" class="fil2" d="M7705 10276c0,124 104,222 234,222 129,0 233,-98 233,-222 0,-124 -104,-222 -233,-222 -130,0 -234,98 -234,222zm126 0c0,-60 47,-109 108,-109 60,0 108,49 108,109 0,61 -48,109 -108,109 -61,0 -108,-48 -108,-109z"/>
  <path id="42" class="fil2" d="M8452 10379c39,69 118,115 215,115 141,0 229,-91 229,-207 0,-90 -64,-167 -151,-175l-1 0 155 -206 -395 0 0 117 186 0 -143 193c30,-9 66,-11 104,-11 74,0 116,32 116,85 0,53 -45,87 -103,87 -50,0 -89,-22 -111,-61l-101 63z"/>
  <path id="43" class="fil2" d="M8946 10276c0,122 89,217 207,217 64,0 114,-26 125,-62l0 55 125 0 0 -580 -125 0 0 216c-11,-37 -61,-63 -125,-63 -118,0 -207,97 -207,217zm125 0c0,-58 46,-104 106,-104 60,0 109,46 109,104 0,58 -49,104 -109,104 -60,0 -106,-46 -106,-104z"/>
  <path class="fil2" d="M22846 8032c0,165 112,245 248,245 134,0 246,-80 246,-245l0 -344 -129 0 0 331c0,102 -47,141 -117,141 -72,0 -119,-39 -119,-141l0 -331 -129 0 0 344z"/>
  <path id="1" class="fil2" d="M23391 8205c33,39 90,74 184,74 128,0 186,-60 186,-141 0,-53 -28,-93 -103,-119 -81,-28 -115,-23 -115,-52 0,-13 12,-25 41,-25 44,0 71,16 88,30l60 -82c-30,-28 -75,-54 -145,-54 -85,0 -164,45 -164,135 0,63 38,96 96,116 65,22 122,24 122,53 0,20 -19,33 -62,33 -50,0 -93,-19 -115,-46l-73 78z"/>
  <path id="2" class="fil2" d="M23803 8061c0,131 94,217 230,217 64,0 125,-19 181,-77l-73 -70c-29,28 -58,41 -102,41 -65,0 -108,-32 -110,-81l316 0c1,-20 1,-40 1,-40 0,-118 -85,-213 -215,-213 -131,0 -228,85 -228,219l0 4zm127 -51c4,-39 47,-69 101,-69 49,0 90,31 90,69l-191 0z"/>
  <path id="3" class="fil2" d="M24572 8058c0,124 104,222 233,222 129,0 233,-98 233,-222 0,-124 -104,-222 -233,-222 -129,0 -233,98 -233,222zm125 0c0,-60 47,-109 108,-109 60,0 108,49 108,109 0,61 -48,109 -108,109 -61,0 -108,-48 -108,-109z"/>
  <path id="4" class="fil2" d="M25385 8268l126 0 0 -55c11,36 60,62 123,62 119,0 208,-95 208,-217 0,-120 -89,-217 -208,-217 -63,0 -112,26 -123,62l0 -215 -126 0 0 580zm118 -210c0,-58 48,-104 109,-104 59,0 106,46 106,104 0,58 -47,104 -106,104 -61,0 -109,-46 -109,-104z"/>
  <path id="5" class="fil2" d="M25891 8058c0,124 104,222 233,222 129,0 233,-98 233,-222 0,-124 -104,-222 -233,-222 -129,0 -233,98 -233,222zm125 0c0,-60 47,-109 108,-109 60,0 108,49 108,109 0,61 -48,109 -108,109 -61,0 -108,-48 -108,-109z"/>
  <path id="6" class="fil2" d="M26422 8093c0,155 97,175 170,175 14,0 36,0 36,0l0 -113c0,0 -5,0 -6,0 -54,0 -79,-22 -79,-81l0 -112 94 0 0 -113 -94 0 0 -161 -121 0 0 405z"/>
  <path id="7" class="fil2" d="M26749 7785l70 10c4,-23 17,-30 34,-30 40,0 69,36 125,36 68,0 101,-44 110,-111l-70 -10c-5,25 -17,35 -36,35 -40,0 -69,-36 -124,-36 -63,0 -101,46 -109,106zm-77 273c0,122 89,217 208,217 64,0 113,-26 125,-62l0 55 125 0 0 -419 -125 0 0 54c-12,-36 -61,-62 -125,-62 -119,0 -208,97 -208,217zm126 0c0,-58 46,-104 106,-104 59,0 109,46 109,104 0,58 -50,104 -109,104 -60,0 -106,-46 -106,-104z"/>
  <path id="8" class="fil2" d="M27196 8058c0,124 104,222 234,222 129,0 233,-98 233,-222 0,-124 -104,-222 -233,-222 -130,0 -234,98 -234,222zm126 0c0,-60 47,-109 108,-109 60,0 108,49 108,109 0,61 -48,109 -108,109 -61,0 -108,-48 -108,-109z"/>
  <path id="9" class="fil2" d="M27986 8058c0,122 89,217 208,217 64,0 114,-26 125,-62l0 55 125 0 0 -580 -125 0 0 215c-11,-36 -61,-62 -125,-62 -119,0 -208,97 -208,217zm126 0c0,-58 46,-104 106,-104 60,0 109,46 109,104 0,58 -49,104 -109,104 -60,0 -106,-46 -106,-104z"/>
  <path id="10" class="fil2" d="M28590 7814c39,0 72,-32 72,-71 0,-40 -33,-71 -72,-71 -38,0 -70,31 -70,71 0,39 32,71 70,71zm-62 454l125 0 0 -419 -125 0 0 419z"/>
  <path id="11" class="fil2" d="M28739 8268l126 0 0 -204c0,-68 41,-109 112,-109 16,0 30,2 42,4l0 -117c-7,-1 -21,-3 -33,-3 -57,0 -102,25 -121,67l0 -57 -126 0 0 419z"/>
  <path id="12" class="fil2" d="M29044 8061c0,131 94,217 230,217 64,0 125,-19 180,-77l-73 -70c-28,28 -58,41 -101,41 -66,0 -108,-32 -111,-81l316 0c2,-20 2,-40 2,-40 0,-118 -86,-213 -216,-213 -130,0 -227,85 -227,219l0 4zm127 -51c3,-39 46,-69 100,-69 49,0 90,31 90,69l-190 0z"/>
  <path id="13" class="fil2" d="M29612 7814c40,0 72,-32 72,-71 0,-40 -32,-71 -72,-71 -38,0 -70,31 -70,71 0,39 32,71 70,71zm-62 454l126 0 0 -419 -126 0 0 419z"/>
  <path id="14" class="fil2" d="M29759 8093c0,155 97,175 169,175 15,0 37,0 37,0l0 -113c0,0 -5,0 -7,0 -54,0 -78,-22 -78,-81l0 -112 93 0 0 -113 -93 0 0 -161 -121 0 0 405z"/>
  <path id="15" class="fil2" d="M29995 8058c0,124 104,222 234,222 129,0 233,-98 233,-222 0,-124 -104,-222 -233,-222 -130,0 -234,98 -234,222zm126 0c0,-60 46,-109 108,-109 60,0 108,49 108,109 0,61 -48,109 -108,109 -62,0 -108,-48 -108,-109z"/>
  <path id="16" class="fil2" d="M21857 9056c0,122 89,217 207,217 64,0 114,-26 125,-62l0 55 125 0 0 -580 -125 0 0 215c-11,-36 -61,-62 -125,-62 -118,0 -207,97 -207,217zm125 0c0,-58 46,-104 106,-104 60,0 109,46 109,104 0,58 -49,104 -109,104 -60,0 -106,-46 -106,-104z"/>
  <path id="17" class="fil2" d="M22380 9056c0,124 104,222 234,222 129,0 233,-98 233,-222 0,-124 -104,-222 -233,-222 -130,0 -234,98 -234,222zm126 0c0,-60 47,-109 108,-109 60,0 108,49 108,109 0,61 -48,109 -108,109 -61,0 -108,-48 -108,-109z"/>
  <path id="18" class="fil2" d="M23194 9266l125 0 0 -236c0,-48 29,-82 69,-82 40,0 61,31 61,78l0 240 126 0 0 -236c0,-48 28,-82 69,-82 41,0 61,31 61,78l0 240 126 0 0 -255c0,-108 -53,-174 -150,-174 -58,0 -112,15 -139,67 -20,-43 -57,-67 -114,-67 -51,0 -93,25 -109,62l0 -52 -125 0 0 419z"/>
  <path id="19" class="fil2" d="M23893 9056c0,124 104,222 234,222 129,0 233,-98 233,-222 0,-124 -104,-222 -233,-222 -130,0 -234,98 -234,222zm126 0c0,-60 46,-109 108,-109 60,0 108,49 108,109 0,61 -48,109 -108,109 -62,0 -108,-48 -108,-109z"/>
  <path id="20" class="fil2" d="M24423 9097c0,123 95,180 202,180 107,0 202,-57 202,-180l0 -250 -126 0 0 239c0,56 -35,77 -76,77 -41,0 -75,-21 -75,-77l0 -239 -127 0 0 250z"/>
  <path id="21" class="fil2" d="M24873 9203c32,39 90,74 184,74 128,0 185,-60 185,-141 0,-53 -27,-93 -103,-119 -80,-28 -115,-23 -115,-51 0,-14 13,-26 41,-26 44,0 72,16 88,31l60 -83c-29,-28 -75,-54 -145,-54 -84,0 -163,45 -163,135 0,63 38,96 96,116 64,22 122,24 122,53 0,20 -20,33 -63,33 -49,0 -92,-19 -115,-46l-72 78z"/>
  <path id="22" class="fil2" d="M25285 9059c0,131 94,217 230,217 64,0 125,-19 181,-77l-74 -70c-28,28 -58,41 -101,41 -66,0 -108,-31 -111,-81l316 0c2,-20 2,-40 2,-40 0,-118 -86,-213 -215,-213 -131,0 -228,85 -228,219l0 4zm127 -51c3,-39 47,-69 101,-69 49,0 89,31 89,69l-190 0z"/>
  <path id="23" class="fil2" d="M26080 9426l125 0 0 -215c12,36 61,62 124,62 119,0 208,-96 208,-217 0,-121 -89,-217 -208,-217 -63,0 -112,27 -124,62l0 -54 -125 0 0 579zm118 -370c0,-58 48,-104 109,-104 59,0 105,46 105,104 0,58 -46,104 -105,104 -61,0 -109,-46 -109,-104z"/>
  <path id="24" class="fil2" d="M26585 9056c0,122 89,217 208,217 64,0 114,-26 125,-62l0 55 125 0 0 -419 -125 0 0 54c-11,-36 -61,-62 -125,-62 -119,0 -208,97 -208,217zm126 0c0,-58 46,-104 106,-104 60,0 109,46 109,104 0,58 -49,104 -109,104 -60,0 -106,-46 -106,-104z"/>
  <path id="25" class="fil2" d="M27128 9266l125 0 0 -204c0,-68 42,-109 113,-109 15,0 30,2 41,4l0 -117c-6,-1 -21,-3 -32,-3 -58,0 -103,25 -122,67l0 -57 -125 0 0 419z"/>
  <path id="26" class="fil2" d="M27432 9056c0,122 89,217 208,217 64,0 113,-26 125,-62l0 55 125 0 0 -419 -125 0 0 54c-12,-36 -61,-62 -125,-62 -119,0 -208,97 -208,217zm126 0c0,-58 45,-104 105,-104 60,0 109,46 109,104 0,58 -49,104 -109,104 -60,0 -105,-46 -105,-104z"/>
  <path id="27" class="fil2" d="M28236 9056c0,122 89,217 207,217 65,0 114,-26 125,-62l0 55 125 0 0 -419 -125 0 0 54c-11,-36 -60,-62 -125,-62 -118,0 -207,97 -207,217zm125 0c0,-58 46,-104 106,-104 60,0 109,46 109,104 0,58 -49,104 -109,104 -60,0 -106,-46 -106,-104z"/>
  <path id="28" class="fil2" d="M28778 9266l125 0 0 -204c0,-68 42,-109 113,-109 15,0 30,2 41,4l0 -117c-6,-1 -21,-3 -32,-3 -58,0 -102,25 -122,67l0 -57 -125 0 0 419z"/>
  <path id="29" class="fil2" d="M29121 9266l126 0 0 -204c0,-68 41,-109 112,-109 16,0 30,2 42,4l0 -117c-7,-1 -21,-3 -33,-3 -57,0 -102,25 -121,67l0 -57 -126 0 0 419z"/>
  <path id="30" class="fil2" d="M29426 9056c0,122 89,217 208,217 64,0 113,-26 124,-62l0 55 125 0 0 -419 -125 0 0 54c-11,-36 -60,-62 -124,-62 -119,0 -208,97 -208,217zm125 0c0,-58 46,-104 106,-104 60,0 109,46 109,104 0,58 -49,104 -109,104 -60,0 -106,-46 -106,-104z"/>
  <path id="31" class="fil2" d="M29936 9203c32,39 89,74 183,74 128,0 186,-60 186,-141 0,-53 -28,-93 -103,-119 -81,-28 -115,-23 -115,-51 0,-14 12,-26 41,-26 44,0 71,16 88,31l60 -83c-29,-28 -75,-54 -145,-54 -85,0 -164,45 -164,135 0,63 38,96 97,116 64,22 121,24 121,53 0,20 -19,33 -62,33 -49,0 -93,-19 -115,-46l-72 78z"/>
  <path id="32" class="fil2" d="M30355 9091c0,155 97,175 169,175 15,0 37,0 37,0l0 -113c0,0 -5,0 -7,0 -54,0 -78,-22 -78,-81l0 -112 93 0 0 -113 -93 0 0 -161 -121 0 0 405z"/>
  <path id="33" class="fil2" d="M30605 9056c0,122 89,217 208,217 64,0 113,-26 125,-62l0 55 124 0 0 -419 -124 0 0 54c-12,-36 -61,-62 -125,-62 -119,0 -208,97 -208,217zm126 0c0,-58 45,-104 105,-104 60,0 109,46 109,104 0,58 -49,104 -109,104 -60,0 -105,-46 -105,-104z"/>
  <path id="34" class="fil2" d="M31147 9266l126 0 0 -204c0,-68 41,-109 112,-109 16,0 30,2 42,4l0 -117c-7,-1 -21,-3 -33,-3 -57,0 -102,25 -121,67l0 -57 -126 0 0 419z"/>
  <path id="35" class="fil2" d="M24078 10264l126 0 0 -236c0,-48 34,-82 81,-82 50,0 76,31 76,78l0 240 126 0 0 -255c0,-108 -58,-174 -162,-174 -57,0 -104,25 -121,62l0 -52 -126 0 0 419z"/>
  <path id="36" class="fil2" d="M24549 10054c0,122 89,217 208,217 64,0 113,-26 125,-62l0 55 125 0 0 -419 -125 0 0 54c-12,-36 -61,-62 -125,-62 -119,0 -208,97 -208,217zm126 0c0,-58 45,-104 105,-104 60,0 109,46 109,104 0,58 -49,104 -109,104 -60,0 -105,-46 -105,-104z"/>
  <path id="37" class="fil2" d="M25366 10089c0,155 97,175 169,175 15,0 37,0 37,0l0 -113c0,0 -5,0 -7,0 -54,0 -78,-22 -78,-81l0 -112 93 0 0 -113 -93 0 0 -161 -121 0 0 405z"/>
  <path id="38" class="fil2" d="M25602 10057c0,131 94,217 230,217 64,0 125,-19 181,-77l-73 -70c-29,28 -59,41 -102,41 -65,0 -108,-31 -110,-81l316 0c1,-20 1,-40 1,-40 0,-118 -85,-213 -215,-213 -131,0 -228,85 -228,219l0 4zm127 -51c4,-39 47,-69 101,-69 49,0 90,31 90,69l-191 0z"/>
  <polygon id="39" class="fil2" points="26109,10264 26235,10264 26235,9684 26109,9684 "/>
  <path id="40" class="fil2" d="M26301 10054c0,122 89,217 208,217 64,0 114,-26 125,-62l0 55 125 0 0 -419 -125 0 0 54c-11,-36 -61,-62 -125,-62 -119,0 -208,97 -208,217zm126 0c0,-58 46,-104 106,-104 60,0 109,46 109,104 0,58 -49,104 -109,104 -60,0 -106,-46 -106,-104z"/>
  <path id="41" class="fil2" d="M27105 10054c0,124 104,222 234,222 129,0 232,-98 232,-222 0,-124 -103,-222 -232,-222 -130,0 -234,98 -234,222zm125 0c0,-60 47,-109 109,-109 59,0 108,49 108,109 0,61 -49,109 -108,109 -62,0 -109,-48 -109,-109z"/>
  <path id="42" class="fil2" d="M27886 10201c32,39 90,74 184,74 128,0 185,-60 185,-141 0,-53 -27,-93 -103,-119 -81,-28 -115,-23 -115,-51 0,-14 13,-26 41,-26 44,0 71,16 88,31l60 -83c-29,-28 -75,-54 -145,-54 -85,0 -164,45 -164,135 0,63 39,96 97,116 64,22 121,24 121,53 0,20 -19,33 -62,33 -49,0 -92,-19 -115,-46l-72 78z"/>
  <path id="43" class="fil2" d="M28298 10057c0,131 94,217 230,217 64,0 125,-19 180,-77l-73 -70c-28,28 -58,41 -101,41 -66,0 -108,-31 -111,-81l316 0c2,-20 2,-40 2,-40 0,-118 -86,-213 -216,-213 -130,0 -227,85 -227,219l0 4zm127 -51c3,-39 46,-69 100,-69 49,0 90,31 90,69l-190 0z"/>
  <path id="44" class="fil2" d="M28801 10095c0,123 94,180 202,180 107,0 202,-57 202,-180l0 -250 -127 0 0 239c0,56 -34,77 -75,77 -41,0 -76,-21 -76,-77l0 -239 -126 0 0 250z"/>
  <path id="45" class="fil2" d="M24574 11262l126 0 0 -236c0,-48 28,-82 68,-82 41,0 62,31 62,78l0 240 125 0 0 -236c0,-48 29,-82 69,-82 41,0 62,31 62,78l0 240 126 0 0 -255c0,-108 -54,-174 -150,-174 -58,0 -112,15 -140,67 -19,-43 -56,-67 -114,-67 -51,0 -92,25 -108,62l0 -52 -126 0 0 419z"/>
  <path id="46" class="fil2" d="M25274 11052c0,124 104,222 234,222 129,0 232,-98 232,-222 0,-124 -103,-222 -232,-222 -130,0 -234,98 -234,222zm126 0c0,-60 46,-109 108,-109 59,0 108,49 108,109 0,61 -49,109 -108,109 -62,0 -108,-48 -108,-109z"/>
  <path id="47" class="fil2" d="M25785 11052c0,122 89,217 208,217 64,0 113,-26 125,-62l0 55 125 0 0 -580 -125 0 0 216c-12,-37 -61,-63 -125,-63 -119,0 -208,97 -208,217zm126 0c0,-58 46,-104 106,-104 59,0 109,46 109,104 0,58 -50,104 -109,104 -60,0 -106,-46 -106,-104z"/>
  <path id="48" class="fil2" d="M26309 11055c0,131 94,217 231,217 64,0 125,-19 180,-77l-73 -70c-28,28 -58,41 -101,41 -66,0 -109,-31 -111,-81l316 0c2,-19 2,-40 2,-40 0,-118 -86,-213 -216,-213 -130,0 -228,85 -228,219l0 4zm128 -51c3,-39 46,-69 100,-69 49,0 90,31 90,69l-190 0z"/>
  <polygon id="49" class="fil2" points="26817,11262 26942,11262 26942,10682 26817,10682 "/>
  <path id="50" class="fil2" d="M27009 11052c0,124 104,222 234,222 128,0 232,-98 232,-222 0,-124 -104,-222 -232,-222 -130,0 -234,98 -234,222zm125 0c0,-60 47,-109 109,-109 59,0 108,49 108,109 0,61 -49,109 -108,109 -62,0 -109,-48 -109,-109z"/>
  <path id="51" class="fil2" d="M27755 11155c39,69 118,115 215,115 142,0 229,-91 229,-207 0,-90 -64,-167 -151,-175l0 0 154 -206 -395 0 0 117 187 0 -144 193c30,-9 66,-11 104,-11 74,0 116,32 116,85 0,53 -45,87 -102,87 -51,0 -90,-22 -112,-61l-101 63z"/>
  <path id="52" class="fil2" d="M28249 11052c0,122 89,217 208,217 64,0 113,-26 125,-62l0 55 124 0 0 -580 -124 0 0 216c-12,-37 -61,-63 -125,-63 -119,0 -208,97 -208,217zm125 0c0,-58 46,-104 106,-104 60,0 109,46 109,104 0,58 -49,104 -109,104 -60,0 -106,-46 -106,-104z"/>
  <path class="fil2" d="M14611 2432c0,165 112,245 248,245 135,0 246,-80 246,-245l0 -344 -129 0 0 331c0,101 -47,140 -117,140 -72,0 -119,-39 -119,-140l0 -331 -129 0 0 344z"/>
  <path id="1" class="fil2" d="M15157 2605c32,38 90,74 183,74 129,0 186,-61 186,-141 0,-53 -27,-93 -103,-119 -81,-28 -115,-23 -115,-52 0,-13 13,-25 41,-25 44,0 71,15 88,30l60 -82c-29,-28 -75,-54 -145,-54 -85,0 -164,45 -164,135 0,63 39,96 97,116 64,22 121,24 121,52 0,20 -19,34 -62,34 -49,0 -92,-19 -115,-46l-72 78z"/>
  <path id="2" class="fil2" d="M15568 2460c0,132 94,218 231,218 64,0 125,-20 180,-77l-73 -70c-28,28 -58,41 -101,41 -66,0 -109,-32 -111,-82l316 0c2,-19 2,-40 2,-40 0,-118 -86,-212 -216,-212 -130,0 -228,85 -228,219l0 3zm128 -50c3,-39 46,-69 100,-69 49,0 90,30 90,69l-190 0z"/>
  <path id="3" class="fil2" d="M16337 2458c0,124 104,222 234,222 128,0 232,-98 232,-222 0,-124 -104,-222 -232,-222 -130,0 -234,98 -234,222zm125 0c0,-60 47,-109 109,-109 59,0 108,49 108,109 0,61 -49,109 -108,109 -62,0 -109,-48 -109,-109z"/>
  <path id="4" class="fil2" d="M17118 2605c32,38 90,74 184,74 128,0 185,-61 185,-141 0,-53 -27,-93 -103,-119 -81,-28 -115,-23 -115,-52 0,-13 13,-25 41,-25 44,0 71,15 88,30l60 -82c-29,-28 -75,-54 -145,-54 -85,0 -164,45 -164,135 0,63 39,96 97,116 64,22 121,24 121,52 0,20 -19,34 -62,34 -49,0 -92,-19 -115,-46l-72 78z"/>
  <path id="5" class="fil2" d="M17527 2457c0,128 104,221 232,221 62,0 121,-20 175,-78l-79 -78c-26,27 -53,43 -96,43 -60,0 -106,-46 -106,-108 0,-63 46,-109 106,-109 43,0 70,16 96,43l79 -78c-54,-58 -113,-78 -175,-78 -128,0 -232,94 -232,222z"/>
  <path id="6" class="fil2" d="M17992 2668l125 0 0 -204c0,-68 42,-109 113,-109 16,0 30,1 41,4l0 -117c-6,-1 -20,-3 -32,-3 -57,0 -102,24 -122,67l0 -58 -125 0 0 420z"/>
  <path id="7" class="fil2" d="M18296 2458c0,124 104,222 234,222 129,0 233,-98 233,-222 0,-124 -104,-222 -233,-222 -130,0 -234,98 -234,222zm126 0c0,-60 46,-109 108,-109 60,0 108,49 108,109 0,61 -48,109 -108,109 -62,0 -108,-48 -108,-109z"/>
  <polygon id="8" class="fil2" points="18830,2668 18956,2668 18956,2088 18830,2088 "/>
  <polygon id="9" class="fil2" points="19041,2668 19166,2668 19166,2088 19041,2088 "/>
  <path id="10" class="fil2" d="M12333 3456c0,121 89,217 208,217 64,0 113,-27 125,-62l0 55 125 0 0 -580 -125 0 0 215c-12,-36 -61,-62 -125,-62 -119,0 -208,96 -208,217zm126 0c0,-58 45,-104 105,-104 60,0 109,46 109,104 0,58 -49,104 -109,104 -60,0 -105,-46 -105,-104z"/>
  <path id="11" class="fil2" d="M12857 3456c0,124 104,222 234,222 129,0 233,-98 233,-222 0,-124 -104,-222 -233,-222 -130,0 -234,98 -234,222zm126 0c0,-60 46,-109 108,-109 60,0 108,49 108,109 0,61 -48,109 -108,109 -62,0 -108,-48 -108,-109z"/>
  <path id="12" class="fil2" d="M13670 3666l126 0 0 -236c0,-48 28,-82 68,-82 41,0 62,31 62,78l0 240 125 0 0 -236c0,-48 29,-82 69,-82 41,0 62,31 62,78l0 240 126 0 0 -255c0,-108 -54,-174 -150,-174 -58,0 -112,14 -140,67 -19,-43 -56,-67 -114,-67 -51,0 -92,25 -108,62l0 -53 -126 0 0 420z"/>
  <path id="13" class="fil2" d="M14370 3456c0,124 104,222 234,222 129,0 232,-98 232,-222 0,-124 -103,-222 -232,-222 -130,0 -234,98 -234,222zm125 0c0,-60 47,-109 109,-109 59,0 108,49 108,109 0,61 -49,109 -108,109 -62,0 -109,-48 -109,-109z"/>
  <path id="14" class="fil2" d="M14900 3497c0,123 94,180 202,180 107,0 202,-57 202,-180l0 -251 -127 0 0 240c0,56 -34,76 -75,76 -41,0 -76,-20 -76,-76l0 -240 -126 0 0 251z"/>
  <path id="15" class="fil2" d="M15350 3603c32,38 89,74 183,74 129,0 186,-61 186,-141 0,-53 -28,-93 -103,-119 -81,-28 -115,-23 -115,-52 0,-13 12,-25 41,-25 44,0 71,15 88,30l60 -82c-29,-28 -75,-54 -145,-54 -85,0 -164,45 -164,135 0,63 38,96 97,116 64,22 121,24 121,52 0,20 -19,34 -62,34 -49,0 -93,-19 -115,-46l-72 78z"/>
  <path id="16" class="fil2" d="M15761 3458c0,132 94,218 231,218 64,0 124,-20 180,-77l-73 -70c-28,28 -58,41 -101,41 -66,0 -109,-32 -111,-82l316 0c2,-19 2,-40 2,-40 0,-118 -86,-212 -216,-212 -130,0 -228,85 -228,219l0 3zm128 -50c3,-39 46,-69 100,-69 49,0 90,30 90,69l-190 0z"/>
  <path id="17" class="fil2" d="M16556 3826l126 0 0 -215c12,36 61,62 124,62 119,0 208,-96 208,-217 0,-121 -89,-217 -208,-217 -63,0 -112,27 -124,62l0 -55 -126 0 0 580zm119 -370c0,-58 48,-104 108,-104 59,0 106,46 106,104 0,58 -47,104 -106,104 -60,0 -108,-46 -108,-104z"/>
  <path id="18" class="fil2" d="M17062 3456c0,121 89,217 208,217 64,0 113,-27 125,-62l0 55 124 0 0 -420 -124 0 0 55c-12,-36 -61,-62 -125,-62 -119,0 -208,96 -208,217zm126 0c0,-58 45,-104 105,-104 60,0 109,46 109,104 0,58 -49,104 -109,104 -60,0 -105,-46 -105,-104z"/>
  <path id="19" class="fil2" d="M17604 3666l126 0 0 -204c0,-68 42,-109 112,-109 16,0 30,2 42,4l0 -117c-7,-1 -21,-3 -33,-3 -57,0 -102,24 -121,67l0 -58 -126 0 0 420z"/>
  <path id="20" class="fil2" d="M17909 3456c0,121 89,217 208,217 64,0 113,-27 124,-62l0 55 125 0 0 -420 -125 0 0 55c-11,-36 -60,-62 -124,-62 -119,0 -208,96 -208,217zm125 0c0,-58 46,-104 106,-104 60,0 109,46 109,104 0,58 -49,104 -109,104 -60,0 -106,-46 -106,-104z"/>
  <path id="21" class="fil2" d="M18712 3456c0,121 89,217 208,217 64,0 113,-27 125,-62l0 55 125 0 0 -420 -125 0 0 55c-12,-36 -61,-62 -125,-62 -119,0 -208,96 -208,217zm126 0c0,-58 45,-104 105,-104 60,0 109,46 109,104 0,58 -49,104 -109,104 -60,0 -105,-46 -105,-104z"/>
  <path id="22" class="fil2" d="M19254 3826l126 0 0 -215c12,36 61,62 124,62 119,0 208,-96 208,-217 0,-121 -89,-217 -208,-217 -63,0 -112,27 -124,62l0 -55 -126 0 0 580zm119 -370c0,-58 48,-104 108,-104 60,0 106,46 106,104 0,58 -46,104 -106,104 -60,0 -108,-46 -108,-104z"/>
  <polygon id="23" class="fil2" points="19778,3666 19904,3666 19904,3086 19778,3086 "/>
  <path id="24" class="fil2" d="M20050 3211c39,0 72,-31 72,-70 0,-40 -33,-71 -72,-71 -38,0 -70,31 -70,71 0,39 32,70 70,70zm-62 455l126 0 0 -420 -126 0 0 420z"/>
  <path id="25" class="fil2" d="M20181 3455c0,128 104,221 232,221 62,0 121,-20 175,-78l-79 -78c-26,27 -53,43 -96,43 -60,0 -106,-45 -106,-108 0,-63 46,-109 106,-109 43,0 70,16 96,43l79 -78c-54,-58 -113,-78 -175,-78 -128,0 -232,94 -232,222z"/>
  <path id="26" class="fil2" d="M20616 3456c0,121 89,217 208,217 64,0 113,-27 125,-62l0 55 124 0 0 -420 -124 0 0 55c-12,-36 -61,-62 -125,-62 -119,0 -208,96 -208,217zm125 0c0,-58 46,-104 106,-104 60,0 109,46 109,104 0,58 -49,104 -109,104 -60,0 -106,-46 -106,-104z"/>
  <path id="27" class="fil2" d="M21158 3666l126 0 0 -204c0,-68 41,-109 112,-109 16,0 30,2 42,4l0 -117c-7,-1 -21,-3 -33,-3 -57,0 -102,24 -121,67l0 -58 -126 0 0 420z"/>
  <path id="28" class="fil2" d="M13053 4454c0,124 104,222 234,222 129,0 233,-98 233,-222 0,-124 -104,-222 -233,-222 -130,0 -234,98 -234,222zm126 0c0,-60 47,-109 108,-109 60,0 108,49 108,109 0,61 -48,109 -108,109 -61,0 -108,-48 -108,-109z"/>
  <polygon id="29" class="fil2" points="13818,4664 14253,4664 14253,4554 14032,4554 14265,4244 13858,4244 13858,4354 14052,4354 "/>
  <path id="30" class="fil2" d="M14288 4454c0,124 104,222 233,222 129,0 233,-98 233,-222 0,-124 -104,-222 -233,-222 -129,0 -233,98 -233,222zm125 0c0,-60 47,-109 108,-109 60,0 108,49 108,109 0,61 -48,109 -108,109 -61,0 -108,-48 -108,-109z"/>
  <path id="31" class="fil2" d="M14803 4454c0,124 104,222 234,222 129,0 233,-98 233,-222 0,-124 -104,-222 -233,-222 -130,0 -234,98 -234,222zm126 0c0,-60 46,-109 108,-109 60,0 108,49 108,109 0,61 -48,109 -108,109 -62,0 -108,-48 -108,-109z"/>
  <path id="32" class="fil2" d="M15337 4664l126 0 0 -236c0,-48 28,-82 68,-82 41,0 61,31 61,78l0 240 126 0 0 -236c0,-48 28,-82 69,-82 41,0 62,31 62,78l0 240 125 0 0 -255c0,-108 -53,-174 -149,-174 -59,0 -113,14 -140,67 -19,-43 -57,-67 -114,-67 -51,0 -92,25 -108,62l0 -53 -126 0 0 420z"/>
  <path id="33" class="fil2" d="M16319 4454c0,121 89,217 208,217 64,0 113,-27 125,-62l0 55 125 0 0 -580 -125 0 0 215c-12,-36 -61,-62 -125,-62 -119,0 -208,96 -208,217zm126 0c0,-58 46,-104 106,-104 59,0 109,46 109,104 0,58 -50,104 -109,104 -60,0 -106,-46 -106,-104z"/>
  <path id="34" class="fil2" d="M16843 4454c0,124 104,222 234,222 129,0 233,-98 233,-222 0,-124 -104,-222 -233,-222 -130,0 -234,98 -234,222zm126 0c0,-60 47,-109 108,-109 60,0 108,49 108,109 0,61 -48,109 -108,109 -61,0 -108,-48 -108,-109z"/>
  <path id="35" class="fil2" d="M17657 4664l125 0 0 -236c0,-48 29,-82 69,-82 40,0 61,31 61,78l0 240 126 0 0 -236c0,-48 28,-82 69,-82 40,0 61,31 61,78l0 240 126 0 0 -255c0,-108 -53,-174 -150,-174 -58,0 -112,14 -140,67 -19,-43 -56,-67 -114,-67 -50,0 -92,25 -108,62l0 -53 -125 0 0 420z"/>
  <path id="36" class="fil2" d="M18356 4454c0,124 104,222 234,222 129,0 233,-98 233,-222 0,-124 -104,-222 -233,-222 -130,0 -234,98 -234,222zm126 0c0,-60 46,-109 108,-109 60,0 108,49 108,109 0,61 -48,109 -108,109 -62,0 -108,-48 -108,-109z"/>
  <path id="37" class="fil2" d="M18868 4454c0,121 89,217 208,217 64,0 113,-27 124,-62l0 55 125 0 0 -580 -125 0 0 215c-11,-36 -60,-62 -124,-62 -119,0 -208,96 -208,217zm125 0c0,-58 46,-104 106,-104 60,0 109,46 109,104 0,58 -49,104 -109,104 -60,0 -106,-46 -106,-104z"/>
  <path id="38" class="fil2" d="M19392 4456c0,132 94,218 230,218 64,0 125,-20 180,-77l-73 -70c-28,28 -58,41 -101,41 -66,0 -108,-32 -111,-82l316 0c2,-19 2,-39 2,-39 0,-119 -86,-213 -215,-213 -131,0 -228,85 -228,219l0 3zm127 -50c3,-39 46,-69 101,-69 49,0 89,30 89,69l-190 0z"/>
  <polygon id="39" class="fil2" points="19899,4664 20025,4664 20025,4084 19899,4084 "/>
  <path id="40" class="fil2" d="M20091 4454c0,124 104,222 234,222 129,0 233,-98 233,-222 0,-124 -104,-222 -233,-222 -130,0 -234,98 -234,222zm126 0c0,-60 46,-109 108,-109 60,0 108,49 108,109 0,61 -48,109 -108,109 -62,0 -108,-48 -108,-109z"/>
  <path id="41" class="fil2" d="M20579 4604c0,37 33,67 69,67 37,0 69,-30 69,-67 0,-39 -32,-69 -69,-69 -36,0 -69,30 -69,69z"/>
  <path id="42" class="fil2" d="M12910 5662l129 0 0 -187 117 0c95,0 196,-79 196,-197 0,-127 -108,-196 -196,-196l-246 0 0 580zm129 -304l0 -159 109 0c25,0 74,15 74,79 0,63 -49,80 -74,80l-109 0z"/>
  <path id="43" class="fil2" d="M13376 5452c0,121 89,217 208,217 64,0 113,-27 125,-62l0 55 124 0 0 -420 -124 0 0 55c-12,-36 -61,-62 -125,-62 -119,0 -208,96 -208,217zm126 0c0,-58 45,-104 105,-104 60,0 109,46 109,104 0,58 -49,104 -109,104 -60,0 -105,-46 -105,-104z"/>
  <path id="44" class="fil2" d="M13918 5662l126 0 0 -204c0,-68 41,-109 112,-109 16,0 30,2 42,4l0 -117c-7,-1 -21,-3 -33,-3 -57,0 -102,24 -121,67l0 -58 -126 0 0 420z"/>
  <path id="45" class="fil2" d="M14223 5452c0,121 89,217 208,217 64,0 113,-27 124,-62l0 55 125 0 0 -420 -125 0 0 55c-11,-36 -60,-62 -124,-62 -119,0 -208,96 -208,217zm125 0c0,-58 46,-104 106,-104 60,0 109,46 109,104 0,58 -49,104 -109,104 -60,0 -106,-46 -106,-104z"/>
  <path id="46" class="fil2" d="M15040 5662l121 0 0 -306 85 0 0 -114 -85 0 0 -11c0,-33 18,-45 58,-45 13,0 37,0 37,0l0 -104c0,0 -32,0 -50,0 -37,0 -81,2 -116,28 -32,25 -50,60 -50,128l0 424z"/>
  <path id="47" class="fil2" d="M15309 5662l125 0 0 -204c0,-68 42,-109 113,-109 16,0 30,2 41,4l0 -117c-6,-1 -20,-3 -32,-3 -57,0 -102,24 -122,67l0 -58 -125 0 0 420z"/>
  <path id="48" class="fil2" d="M15613 5455c0,131 94,217 231,217 64,0 124,-20 180,-77l-73 -70c-28,28 -58,41 -101,41 -66,0 -109,-32 -111,-82l316 0c2,-19 2,-39 2,-39 0,-119 -86,-213 -216,-213 -130,0 -228,85 -228,219l0 4zm128 -51c3,-39 46,-69 100,-69 49,0 90,31 90,69l-190 0z"/>
  <path id="49" class="fil2" d="M16121 5662l125 0 0 -236c0,-48 34,-82 82,-82 50,0 75,31 75,78l0 240 126 0 0 -255c0,-108 -57,-174 -161,-174 -58,0 -104,25 -122,62l0 -53 -125 0 0 420z"/>
  <path id="50" class="fil2" d="M16607 5487c0,155 97,175 170,175 14,0 36,0 36,0l0 -114c0,0 -5,0 -6,0 -54,0 -78,-21 -78,-80l0 -112 93 0 0 -114 -93 0 0 -160 -122 0 0 405z"/>
  <path id="51" class="fil2" d="M16843 5455c0,131 94,217 231,217 64,0 124,-20 180,-77l-73 -70c-28,28 -58,41 -101,41 -66,0 -109,-32 -111,-82l316 0c2,-19 2,-39 2,-39 0,-119 -86,-213 -216,-213 -130,0 -228,85 -228,219l0 4zm128 -51c3,-39 46,-69 100,-69 49,0 90,31 90,69l-190 0z"/>
  <path id="52" class="fil2" d="M17615 5452c0,121 89,217 208,217 64,0 113,-27 125,-62l0 55 125 0 0 -580 -125 0 0 215c-12,-36 -61,-62 -125,-62 -119,0 -208,96 -208,217zm126 0c0,-58 45,-104 105,-104 60,0 109,46 109,104 0,58 -49,104 -109,104 -60,0 -105,-46 -105,-104z"/>
  <path id="53" class="fil2" d="M18219 5208c39,0 71,-32 71,-71 0,-40 -32,-71 -71,-71 -38,0 -71,31 -71,71 0,39 33,71 71,71zm-62 454l125 0 0 -420 -125 0 0 420z"/>
  <path id="54" class="fil2" d="M18368 5662l125 0 0 -236c0,-48 29,-82 69,-82 40,0 61,31 61,78l0 240 126 0 0 -236c0,-48 28,-82 69,-82 41,0 61,31 61,78l0 240 126 0 0 -255c0,-108 -53,-174 -150,-174 -58,0 -112,14 -140,67 -19,-43 -56,-67 -113,-67 -51,0 -93,25 -109,62l0 -53 -125 0 0 420z"/>
  <path id="55" class="fil2" d="M19147 5208c39,0 72,-32 72,-71 0,-40 -33,-71 -72,-71 -38,0 -71,31 -71,71 0,39 33,71 71,71zm-62 454l125 0 0 -420 -125 0 0 420z"/>
  <path id="56" class="fil2" d="M19296 5662l126 0 0 -236c0,-48 34,-82 81,-82 50,0 76,31 76,78l0 240 125 0 0 -255c0,-108 -57,-174 -161,-174 -57,0 -104,25 -121,62l0 -53 -126 0 0 420z"/>
  <path id="57" class="fil2" d="M19781 5493c0,123 95,180 202,180 107,0 202,-57 202,-180l0 -251 -126 0 0 240c0,56 -35,76 -76,76 -41,0 -76,-20 -76,-76l0 -240 -126 0 0 251z"/>
  <path id="58" class="fil2" d="M20329 5208c39,0 71,-32 71,-71 0,-40 -32,-71 -71,-71 -38,0 -71,31 -71,71 0,39 33,71 71,71zm-62 454l125 0 0 -420 -125 0 0 420z"/>
  <path id="59" class="fil2" d="M20478 5662l125 0 0 -204c0,-68 42,-109 113,-109 15,0 30,2 41,4l0 -117c-6,-1 -21,-3 -32,-3 -58,0 -102,24 -122,67l0 -58 -125 0 0 420z"/>
  <polygon id="60" class="fil2" points="20762,5569 20689,5768 20781,5768 20885,5569 "/>
  <path id="61" class="fil2" d="M13206 6820l125 0 0 -215c12,36 61,62 124,62 119,0 208,-96 208,-217 0,-121 -89,-217 -208,-217 -63,0 -112,27 -124,62l0 -55 -125 0 0 580zm118 -370c0,-58 48,-104 109,-104 59,0 105,46 105,104 0,58 -46,104 -105,104 -61,0 -109,-46 -109,-104z"/>
  <path id="62" class="fil2" d="M13711 6450c0,121 89,217 208,217 64,0 113,-27 125,-62l0 55 125 0 0 -420 -125 0 0 55c-12,-36 -61,-62 -125,-62 -119,0 -208,96 -208,217zm126 0c0,-58 46,-104 105,-104 60,0 109,46 109,104 0,58 -49,104 -109,104 -59,0 -105,-46 -105,-104z"/>
  <path id="63" class="fil2" d="M14253 6660l126 0 0 -204c0,-68 42,-109 112,-109 16,0 30,2 42,4l0 -117c-7,-1 -21,-3 -33,-3 -57,0 -102,24 -121,67l0 -58 -126 0 0 420z"/>
  <path id="64" class="fil2" d="M14558 6450c0,121 89,217 208,217 64,0 113,-27 125,-62l0 55 124 0 0 -420 -124 0 0 55c-12,-36 -61,-62 -125,-62 -119,0 -208,96 -208,217zm125 0c0,-58 46,-104 106,-104 60,0 109,46 109,104 0,58 -49,104 -109,104 -60,0 -106,-46 -106,-104z"/>
  <path id="65" class="fil2" d="M15375 6485c0,155 97,175 169,175 14,0 37,0 37,0l0 -113c0,0 -5,0 -7,0 -54,0 -78,-22 -78,-81l0 -112 93 0 0 -114 -93 0 0 -160 -121 0 0 405z"/>
  <path id="66" class="fil2" d="M15646 6660l125 0 0 -204c0,-68 42,-109 113,-109 15,0 30,2 41,4l0 -117c-6,-1 -21,-3 -32,-3 -58,0 -103,24 -122,67l0 -58 -125 0 0 420z"/>
  <path id="67" class="fil2" d="M16147 6201l93 0 84 -121 -135 0 -42 121zm-197 249c0,121 89,217 208,217 64,0 113,-27 125,-62l0 55 125 0 0 -420 -125 0 0 55c-12,-36 -61,-62 -125,-62 -119,0 -208,96 -208,217zm126 0c0,-58 45,-104 105,-104 60,0 109,46 109,104 0,58 -49,104 -109,104 -60,0 -105,-46 -105,-104z"/>
  <path id="68" class="fil2" d="M16460 6597c32,39 90,74 184,74 128,0 185,-60 185,-141 0,-53 -27,-93 -103,-119 -81,-28 -115,-23 -115,-52 0,-13 13,-25 41,-25 44,0 72,15 88,30l60 -82c-29,-28 -75,-54 -145,-54 -84,0 -163,45 -163,135 0,63 38,96 96,116 64,22 121,24 121,53 0,20 -19,33 -62,33 -49,0 -92,-19 -115,-46l-72 78z"/>
  <path id="69" class="fil2" d="M17137 6450c0,121 89,217 208,217 64,0 113,-27 125,-62l0 55 124 0 0 -420 -124 0 0 55c-12,-36 -61,-62 -125,-62 -119,0 -208,96 -208,217zm126 0c0,-58 45,-104 105,-104 60,0 109,46 109,104 0,58 -49,104 -109,104 -60,0 -105,-46 -105,-104z"/>
  <path id="70" class="fil2" d="M17675 6491c0,123 95,180 202,180 107,0 202,-57 202,-180l0 -251 -126 0 0 240c0,56 -35,76 -76,76 -41,0 -76,-20 -76,-76l0 -240 -126 0 0 251z"/>
  <path id="71" class="fil2" d="M18162 6660l125 0 0 -236c0,-48 28,-82 68,-82 41,0 62,31 62,78l0 240 126 0 0 -236c0,-48 28,-82 69,-82 40,0 61,31 61,78l0 240 126 0 0 -255c0,-108 -54,-174 -150,-174 -58,0 -112,14 -140,67 -19,-43 -56,-67 -114,-67 -50,0 -92,25 -108,62l0 -53 -125 0 0 420z"/>
  <path id="72" class="fil2" d="M18861 6453c0,131 94,217 230,217 64,0 125,-20 181,-77l-73 -70c-29,28 -59,41 -102,41 -65,0 -108,-32 -110,-82l316 0c1,-19 1,-39 1,-39 0,-119 -85,-213 -215,-213 -131,0 -228,85 -228,219l0 4zm127 -51c4,-39 47,-69 101,-69 49,0 90,31 90,69l-191 0z"/>
  <path id="73" class="fil2" d="M19368 6660l126 0 0 -236c0,-48 34,-82 81,-82 50,0 76,31 76,78l0 240 126 0 0 -255c0,-108 -58,-174 -162,-174 -57,0 -104,25 -121,62l0 -53 -126 0 0 420z"/>
  <path id="74" class="fil2" d="M19855 6485c0,155 97,175 170,175 14,0 36,0 36,0l0 -113c0,0 -5,0 -7,0 -54,0 -78,-22 -78,-81l0 -112 93 0 0 -114 -93 0 0 -160 -121 0 0 405z"/>
  <path id="75" class="fil2" d="M20105 6450c0,121 89,217 208,217 64,0 113,-27 125,-62l0 55 125 0 0 -420 -125 0 0 55c-12,-36 -61,-62 -125,-62 -119,0 -208,96 -208,217zm126 0c0,-58 46,-104 105,-104 60,0 109,46 109,104 0,58 -49,104 -109,104 -59,0 -105,-46 -105,-104z"/>
  <circle class="fil3 str0" cx="13600" cy="12138" r="239"/>
  <circle class="fil3 str0" cx="18971" cy="12180" r="239"/>
  <circle class="fil3 str0" cx="16282" cy="12835" r="239"/>
  <g>
   <path class="fil4" d="M10304 10338l3320 1755 -48 91 -3320 -1755 48 -91zm-342 -123l777 64 -18 12 -16 13 -16 13 -16 14 -15 13 -15 14 -14 15 -13 14 -13 15 -12 15 -12 16 -12 16 -10 16 -11 16 -10 16 -9 17 -8 17 -9 18 -7 17 -7 18 -7 19 -6 18 -6 19 -5 19 -4 19 -4 20 -3 20 -3 20 -3 20 -1 21 -2 21 0 22 0 0 -490 -607z"/>
  </g>
  <g>
   <path class="fil4" d="M22315 10471l-3320 1755 -48 -91 3321 -1755 47 91zm295 -214l-490 607 -1 -22 -1 -21 -2 -20 -2 -21 -3 -20 -4 -20 -4 -20 -4 -19 -5 -19 -6 -19 -6 -18 -6 -19 -7 -18 -8 -17 -8 -18 -9 -17 -9 -17 -10 -16 -10 -16 -11 -16 -11 -16 -12 -16 -13 -15 -13 -15 -13 -14 -14 -14 -15 -15 -15 -13 -15 -14 -16 -13 -17 -13 -17 -12 0 0 777 -64z"/>
  </g>
  <g>
   <path class="fil4" d="M16334 7321l0 5514 -103 0 0 -5514 103 0zm-52 -360l308 717 -20 -9 -19 -9 -19 -8 -19 -8 -19 -7 -20 -6 -19 -6 -19 -5 -19 -4 -19 -4 -20 -3 -19 -3 -19 -2 -19 -2 -19 -1 -20 0 -19 0 -19 1 -19 2 -19 2 -20 3 -19 3 -19 4 -19 4 -19 5 -20 6 -19 6 -19 7 -19 8 -19 8 -20 9 -19 9 0 0 307 -717z"/>
  </g>
  <rect class="fil5 str1" x="12" y="24781" width="33485" height="5018"/>
  <path class="fil2" d="M694 25807c0,158 126,277 283,277 157,0 283,-119 283,-277 0,-157 -126,-278 -283,-278 -157,0 -283,121 -283,278zm96 0c0,-107 80,-190 187,-190 106,0 187,84 187,190 0,107 -81,190 -187,190 -107,0 -187,-82 -187,-190z"/>
  <path id="1" class="fil2" d="M1587 26222l93 0 0 -205c14,37 59,65 123,65 109,0 194,-88 194,-202 0,-114 -85,-202 -194,-202 -64,0 -109,28 -123,65l0 -57 -93 0 0 536zm87 -342c0,-67 50,-117 117,-117 65,0 114,50 114,117 0,67 -49,118 -114,118 -67,0 -117,-51 -117,-118z"/>
  <path id="2" class="fil2" d="M2077 26074l93 0 0 -203c0,-64 40,-104 104,-104 15,0 28,2 39,4l0 -90c-4,-1 -18,-2 -28,-2 -55,0 -97,25 -115,65l0 -58 -93 0 0 388z"/>
  <path id="3" class="fil2" d="M2351 25883c0,121 84,200 206,200 58,0 113,-16 163,-69l-56 -55c-29,29 -57,45 -104,45 -69,0 -113,-39 -116,-101l300 0c2,-15 2,-32 2,-32 0,-108 -76,-195 -192,-195 -116,0 -203,80 -203,204l0 3zm95 -44c4,-47 51,-84 108,-84 53,0 97,37 97,84l-205 0z"/>
  <polygon id="4" class="fil2" points="2971,26098 3179,25686 3083,25686 2971,25915 2859,25686 2762,25686 "/>
  <path id="5" class="fil2" d="M3283 25642c29,0 56,-25 56,-55 0,-31 -27,-55 -56,-55 -30,0 -55,24 -55,55 0,30 25,55 55,55zm-47 432l94 0 0 -388 -94 0 0 388z"/>
  <path id="6" class="fil2" d="M3411 25883c0,121 84,200 206,200 58,0 113,-16 162,-69l-56 -55c-28,29 -56,45 -103,45 -69,0 -113,-39 -116,-101l300 0c2,-15 2,-32 2,-32 0,-108 -76,-195 -192,-195 -116,0 -203,80 -203,204l0 3zm95 -44c4,-47 51,-84 108,-84 53,0 97,37 97,84l-205 0z"/>
  <polygon id="7" class="fil2" points="3995,26098 4118,25848 4239,26098 4398,25686 4307,25686 4225,25903 4118,25677 4010,25903 3928,25686 3836,25686 "/>
  <path id="8" class="fil2" d="M4660 25973c33,67 108,110 200,110 123,0 203,-81 203,-188 0,-88 -66,-162 -151,-167l-1 0 153 -190 -355 0 0 88 189 0 -147 186c28,-10 60,-13 97,-13 73,0 120,40 120,99 0,57 -46,96 -110,96 -56,0 -100,-23 -120,-64l-78 43z"/>
  <path id="9" class="fil2" d="M5166 26074l192 0c182,0 281,-109 281,-267 0,-157 -100,-269 -281,-269l-192 0 0 536zm96 -88l0 -360 89 0c141,0 191,77 191,181 0,101 -50,179 -190,179l-90 0z"/>
  <path id="10" class="fil2" d="M6112 25650l70 0 74 -112 -105 0 -39 112zm-162 233c0,121 84,200 206,200 58,0 113,-16 162,-69l-56 -55c-28,29 -56,45 -103,45 -69,0 -113,-39 -116,-101l300 0c2,-15 2,-32 2,-32 0,-108 -76,-195 -192,-195 -116,0 -203,80 -203,204l0 3zm95 -44c4,-47 51,-84 108,-84 53,0 97,37 97,84l-205 0z"/>
  <path id="11" class="fil2" d="M6683 25920c0,111 81,164 177,164 97,0 178,-54 178,-166l0 -232 -94 0 0 226c0,60 -36,86 -83,86 -48,0 -84,-26 -84,-86l0 -226 -94 0 0 234z"/>
  <path id="12" class="fil2" d="M7132 26074l93 0 0 -223c0,-52 31,-89 74,-89 45,0 69,34 69,85l0 227 92 0 0 -223c0,-52 32,-89 77,-89 44,0 68,34 68,85l0 227 94 0 0 -240c0,-95 -50,-155 -136,-155 -55,0 -103,19 -126,67 -19,-43 -55,-67 -109,-67 -50,0 -87,26 -103,63l0 -56 -93 0 0 388z"/>
  <path id="13" class="fil2" d="M8027 26006c25,45 80,78 161,78 110,0 160,-57 160,-123 0,-56 -33,-90 -104,-116 -65,-23 -98,-27 -98,-56 0,-20 17,-34 46,-34 38,0 61,14 76,32l52 -55c-25,-33 -66,-57 -126,-57 -74,0 -138,41 -138,116 0,59 39,88 96,109 60,22 106,29 106,61 0,20 -16,42 -69,42 -50,0 -86,-22 -102,-48l-60 51z"/>
  <path id="14" class="fil2" d="M8401 25880c0,116 95,205 212,205 117,0 211,-89 211,-205 0,-116 -94,-205 -211,-205 -117,0 -212,89 -212,205zm93 0c0,-68 51,-121 119,-121 67,0 119,53 119,121 0,68 -52,121 -119,121 -68,0 -119,-53 -119,-121z"/>
  <path id="15" class="fil2" d="M8892 26074l93 0 0 -303 74 0 0 -85 -74 0 0 -26c0,-40 16,-54 51,-54 0,0 35,0 35,0l0 -78c0,0 -39,0 -40,0 -30,0 -67,2 -96,26 -28,23 -43,53 -43,114l0 406z"/>
  <path id="16" class="fil2" d="M9134 25910c0,132 95,164 159,164 1,0 19,0 19,0l0 -88c0,0 -4,0 -4,0 -49,0 -81,-24 -81,-82l0 -133 85 0 0 -85 -85 0 0 -148 -93 0 0 372z"/>
  <polygon id="17" class="fil2" points="9506,26098 9629,25848 9750,26098 9909,25686 9817,25686 9735,25903 9629,25677 9520,25903 9439,25686 9347,25686 "/>
  <path id="18" class="fil2" d="M9933 25880c0,114 85,202 194,202 65,0 111,-28 124,-65l0 57 93 0 0 -388 -93 0 0 57c-13,-37 -59,-65 -124,-65 -109,0 -194,88 -194,202zm93 0c0,-67 49,-117 114,-117 66,0 118,50 118,117 0,67 -52,118 -118,118 -65,0 -114,-51 -114,-118z"/>
  <path id="19" class="fil2" d="M10440 26074l92 0 0 -203c0,-64 41,-104 105,-104 15,0 28,2 38,4l0 -90c-4,-1 -17,-2 -27,-2 -56,0 -97,25 -116,65l0 -58 -92 0 0 388z"/>
  <path id="20" class="fil2" d="M10714 25883c0,121 84,200 206,200 58,0 112,-16 162,-69l-56 -55c-28,29 -57,45 -103,45 -69,0 -113,-39 -116,-101l300 0c1,-15 1,-32 1,-32 0,-108 -76,-195 -191,-195 -116,0 -203,80 -203,204l0 3zm95 -44c4,-47 51,-84 108,-84 53,0 97,37 97,84l-205 0z"/>
  <path id="21" class="fil2" d="M11427 25879c0,119 95,205 211,205 58,0 111,-19 156,-67l-58 -59c-26,26 -56,42 -98,42 -67,0 -118,-52 -118,-121 0,-69 51,-120 118,-120 42,0 72,15 98,42l58 -60c-45,-48 -98,-67 -156,-67 -116,0 -211,87 -211,205z"/>
  <path id="22" class="fil2" d="M11843 25880c0,116 94,205 212,205 116,0 211,-89 211,-205 0,-116 -95,-205 -211,-205 -118,0 -212,89 -212,205zm93 0c0,-68 50,-121 119,-121 67,0 119,53 119,121 0,68 -52,121 -119,121 -69,0 -119,-53 -119,-121z"/>
  <path id="23" class="fil2" d="M12347 26074l92 0 0 -223c0,-52 32,-89 75,-89 44,0 68,34 68,85l0 227 93 0 0 -223c0,-52 32,-89 76,-89 45,0 69,34 69,85l0 227 93 0 0 -240c0,-95 -49,-155 -135,-155 -55,0 -103,19 -127,67 -18,-43 -54,-67 -108,-67 -50,0 -87,26 -104,63l0 -56 -92 0 0 388z"/>
  <path id="24" class="fil2" d="M13006 26222l94 0 0 -205c13,37 58,65 123,65 109,0 193,-88 193,-202 0,-114 -84,-202 -193,-202 -65,0 -110,28 -123,65l0 -57 -94 0 0 536zm87 -342c0,-67 51,-117 118,-117 64,0 113,50 113,117 0,67 -49,118 -113,118 -67,0 -118,-51 -118,-118z"/>
  <polygon id="25" class="fil2" points="13496,26074 13590,26074 13590,25538 13496,25538 "/>
  <path id="26" class="fil2" d="M13670 25883c0,121 84,200 206,200 58,0 113,-16 162,-69l-56 -55c-28,29 -56,45 -103,45 -69,0 -113,-39 -116,-101l300 0c2,-15 2,-32 2,-32 0,-108 -76,-195 -192,-195 -116,0 -203,80 -203,204l0 3zm95 -44c4,-47 51,-84 108,-84 53,0 97,37 97,84l-205 0z"/>
  <path id="27" class="fil2" d="M14141 25910c0,132 95,164 159,164 0,0 19,0 19,0l0 -88c0,0 -5,0 -5,0 -48,0 -80,-24 -80,-82l0 -133 85 0 0 -85 -85 0 0 -148 -93 0 0 372z"/>
  <path id="28" class="fil2" d="M14371 25880c0,116 94,205 212,205 117,0 211,-89 211,-205 0,-116 -94,-205 -211,-205 -118,0 -212,89 -212,205zm93 0c0,-68 51,-121 119,-121 67,0 119,53 119,121 0,68 -52,121 -119,121 -68,0 -119,-53 -119,-121z"/>
  <polygon id="29" class="fil2" points="14853,25988 14785,26172 14856,26172 14952,25988 "/>
  <path id="30" class="fil2" d="M15303 26222l93 0 0 -205c13,37 59,65 123,65 109,0 194,-88 194,-202 0,-114 -85,-202 -194,-202 -64,0 -110,28 -123,65l0 -57 -93 0 0 536zm86 -342c0,-67 51,-117 118,-117 64,0 114,50 114,117 0,67 -50,118 -114,118 -67,0 -118,-51 -118,-118z"/>
  <path id="31" class="fil2" d="M15776 25880c0,116 94,205 212,205 116,0 211,-89 211,-205 0,-116 -95,-205 -211,-205 -118,0 -212,89 -212,205zm93 0c0,-68 50,-121 119,-121 66,0 119,53 119,121 0,68 -53,121 -119,121 -69,0 -119,-53 -119,-121z"/>
  <path id="32" class="fil2" d="M16279 26074l93 0 0 -203c0,-64 41,-104 105,-104 14,0 27,2 38,4l0 -90c-4,-1 -17,-2 -27,-2 -56,0 -97,25 -116,65l0 -58 -93 0 0 388z"/>
  <path id="33" class="fil2" d="M16594 25910c0,132 96,164 159,164 1,0 20,0 20,0l0 -88c0,0 -5,0 -5,0 -48,0 -81,-24 -81,-82l0 -133 86 0 0 -85 -86 0 0 -148 -93 0 0 372z"/>
  <path id="34" class="fil2" d="M16823 25880c0,114 85,202 194,202 65,0 110,-28 123,-65l0 57 93 0 0 -388 -93 0 0 57c-13,-37 -58,-65 -123,-65 -109,0 -194,88 -194,202zm93 0c0,-67 49,-117 114,-117 66,0 117,50 117,117 0,67 -51,118 -117,118 -65,0 -114,-51 -114,-118z"/>
  <path id="35" class="fil2" d="M17329 26074l93 0 0 -223c0,-52 37,-89 89,-89 53,0 82,34 82,85l0 227 93 0 0 -240c0,-95 -53,-155 -147,-155 -55,0 -99,26 -117,63l0 -56 -93 0 0 388z"/>
  <path id="36" class="fil2" d="M17778 25910c0,132 95,164 159,164 1,0 19,0 19,0l0 -88c0,0 -5,0 -5,0 -48,0 -80,-24 -80,-82l0 -133 85 0 0 -85 -85 0 0 -148 -93 0 0 372z"/>
  <path id="37" class="fil2" d="M18008 25880c0,116 95,205 212,205 117,0 211,-89 211,-205 0,-116 -94,-205 -211,-205 -117,0 -212,89 -212,205zm93 0c0,-68 51,-121 119,-121 67,0 119,53 119,121 0,68 -52,121 -119,121 -68,0 -119,-53 -119,-121z"/>
  <path id="38" class="fil2" d="M18753 25883c0,121 85,200 206,200 58,0 113,-16 163,-69l-56 -55c-29,29 -57,45 -104,45 -68,0 -113,-39 -116,-101l300 0c2,-15 2,-32 2,-32 0,-108 -76,-195 -191,-195 -116,0 -204,80 -204,204l0 3zm95 -44c4,-47 51,-84 109,-84 53,0 96,37 96,84l-205 0z"/>
  <polygon id="39" class="fil2" points="19163,26074 19264,26074 19361,25938 19459,26074 19560,26074 19413,25869 19547,25686 19444,25686 19361,25802 19278,25686 19176,25686 19310,25869 "/>
  <path id="40" class="fil2" d="M19671 25642c29,0 55,-25 55,-55 0,-31 -26,-55 -55,-55 -30,0 -55,24 -55,55 0,30 25,55 55,55zm-47 432l94 0 0 -388 -94 0 0 388z"/>
  <path id="41" class="fil2" d="M19798 25878c0,113 85,199 194,199 64,0 109,-26 126,-57l0 26c0,77 -40,114 -120,114 -49,0 -87,-26 -100,-60l-82 40c27,59 95,103 184,103 153,0 209,-97 209,-200l0 -357 -93 0 0 57c-13,-37 -59,-65 -124,-65 -109,0 -194,88 -194,200zm93 0c0,-65 49,-115 114,-115 66,0 118,50 118,115 0,67 -52,116 -118,116 -65,0 -114,-49 -114,-116z"/>
  <path id="42" class="fil2" d="M20288 25883c0,121 84,200 205,200 59,0 113,-16 163,-69l-56 -55c-28,29 -57,45 -103,45 -69,0 -113,-39 -116,-101l300 0c1,-15 1,-32 1,-32 0,-108 -76,-195 -191,-195 -116,0 -203,80 -203,204l0 3zm95 -44c4,-47 51,-84 108,-84 53,0 97,37 97,84l-205 0z"/>
  <path id="43" class="fil2" d="M21009 25883c0,121 84,200 206,200 58,0 113,-16 162,-69l-56 -55c-28,29 -56,45 -103,45 -69,0 -113,-39 -116,-101l300 0c2,-15 2,-32 2,-32 0,-108 -76,-195 -192,-195 -116,0 -203,80 -203,204l0 3zm95 -44c4,-47 51,-84 108,-84 53,0 97,37 97,84l-205 0z"/>
  <path id="44" class="fil2" d="M21450 26006c24,45 80,78 160,78 111,0 160,-57 160,-123 0,-56 -32,-90 -104,-116 -65,-23 -97,-27 -97,-56 0,-20 17,-34 46,-34 37,0 60,14 75,32l52 -55c-25,-33 -66,-57 -126,-57 -73,0 -137,41 -137,116 0,59 38,88 95,109 60,22 106,29 106,61 0,20 -16,42 -68,42 -50,0 -86,-22 -102,-48l-60 51z"/>
  <path id="45" class="fil2" d="M21842 26222l94 0 0 -205c13,37 58,65 123,65 109,0 193,-88 193,-202 0,-114 -84,-202 -193,-202 -65,0 -110,28 -123,65l0 -57 -94 0 0 536zm87 -342c0,-67 51,-117 117,-117 65,0 114,50 114,117 0,67 -49,118 -114,118 -66,0 -117,-51 -117,-118z"/>
  <path id="46" class="fil2" d="M22315 25880c0,114 85,202 194,202 65,0 110,-28 123,-65l0 57 93 0 0 -388 -93 0 0 57c-13,-37 -58,-65 -123,-65 -109,0 -194,88 -194,202zm93 0c0,-67 49,-117 114,-117 66,0 117,50 117,117 0,67 -51,118 -117,118 -65,0 -114,-51 -114,-118z"/>
  <path id="47" class="fil2" d="M22910 26216c13,10 40,19 66,19 53,0 87,-22 87,-70 0,-35 -23,-56 -50,-56 0,0 -1,0 -1,0l11 -25 0 0c55,-2 106,-21 148,-67l-58 -59c-26,26 -56,42 -97,42 -68,0 -119,-52 -119,-121 0,-69 51,-120 119,-120 41,0 71,15 97,42l58 -60c-45,-48 -98,-67 -155,-67 -117,0 -212,87 -212,205 0,103 72,182 166,201l-21 52 1 0c30,0 48,5 48,29 0,15 -13,25 -30,25 -17,0 -25,-3 -38,-11l-20 41z"/>
  <path id="48" class="fil2" d="M23220 25880c0,116 94,205 212,205 117,0 211,-89 211,-205 0,-116 -94,-205 -211,-205 -118,0 -212,89 -212,205zm93 0c0,-68 51,-121 119,-121 67,0 119,53 119,121 0,68 -52,121 -119,121 -68,0 -119,-53 -119,-121z"/>
  <path id="49" class="fil2" d="M23982 26074l93 0 0 -223c0,-52 37,-89 89,-89 52,0 81,34 81,85l0 227 94 0 0 -240c0,-95 -54,-155 -148,-155 -55,0 -99,26 -116,63l0 -56 -93 0 0 388z"/>
  <path id="50" class="fil2" d="M24415 25880c0,114 84,202 193,202 66,0 111,-28 124,-65l0 57 93 0 0 -388 -93 0 0 57c-13,-37 -58,-65 -124,-65 -109,0 -193,88 -193,202zm93 0c0,-67 48,-117 114,-117 66,0 117,50 117,117 0,67 -51,118 -117,118 -66,0 -114,-51 -114,-118z"/>
  <path id="51" class="fil2" d="M25187 26074l93 0 0 -223c0,-52 31,-89 74,-89 45,0 69,34 69,85l0 227 92 0 0 -223c0,-52 32,-89 77,-89 44,0 68,34 68,85l0 227 94 0 0 -240c0,-95 -50,-155 -136,-155 -55,0 -103,19 -126,67 -19,-43 -55,-67 -109,-67 -50,0 -87,26 -103,63l0 -56 -93 0 0 388z"/>
  <path id="52" class="fil2" d="M25830 25883c0,121 84,200 205,200 59,0 113,-16 163,-69l-56 -55c-28,29 -57,45 -104,45 -68,0 -112,-39 -115,-101l300 0c1,-15 1,-32 1,-32 0,-108 -76,-195 -191,-195 -116,0 -203,80 -203,204l0 3zm95 -44c4,-47 51,-84 108,-84 53,0 97,37 97,84l-205 0z"/>
  <path id="53" class="fil2" d="M26302 26074l93 0 0 -223c0,-52 31,-89 74,-89 45,0 69,34 69,85l0 227 93 0 0 -223c0,-52 31,-89 76,-89 44,0 68,34 68,85l0 227 94 0 0 -240c0,-95 -49,-155 -135,-155 -56,0 -103,19 -127,67 -19,-43 -55,-67 -108,-67 -50,0 -88,26 -104,63l0 -56 -93 0 0 388z"/>
  <path id="54" class="fil2" d="M27120 25650l70 0 74 -112 -105 0 -39 112zm-175 230c0,116 94,205 212,205 116,0 211,-89 211,-205 0,-116 -95,-205 -211,-205 -118,0 -212,89 -212,205zm93 0c0,-68 50,-121 119,-121 67,0 119,53 119,121 0,68 -52,121 -119,121 -69,0 -119,-53 -119,-121z"/>
  <path id="55" class="fil2" d="M27449 26074l92 0 0 -203c0,-64 41,-104 105,-104 15,0 28,2 38,4l0 -90c-4,-1 -17,-2 -27,-2 -56,0 -97,25 -116,65l0 -58 -92 0 0 388z"/>
  <path id="56" class="fil2" d="M27811 25642c29,0 55,-25 55,-55 0,-31 -26,-55 -55,-55 -30,0 -55,24 -55,55 0,30 25,55 55,55zm-47 432l94 0 0 -388 -94 0 0 388z"/>
  <path id="57" class="fil2" d="M27939 25880c0,114 84,202 193,202 65,0 111,-28 124,-65l0 57 93 0 0 -388 -93 0 0 57c-13,-37 -59,-65 -124,-65 -109,0 -193,88 -193,202zm92 0c0,-67 49,-117 114,-117 66,0 118,50 118,117 0,67 -52,118 -118,118 -65,0 -114,-51 -114,-118z"/>
  <path id="58" class="fil2" d="M28710 26074l93 0 0 -203c0,-64 41,-104 105,-104 14,0 27,2 38,4l0 -90c-4,-1 -18,-2 -27,-2 -56,0 -97,25 -116,65l0 -58 -93 0 0 388z"/>
  <path id="59" class="fil2" d="M28985 25880c0,114 84,202 193,202 65,0 111,-28 124,-65l0 57 93 0 0 -388 -93 0 0 57c-13,-37 -59,-65 -124,-65 -109,0 -193,88 -193,202zm92 0c0,-67 49,-117 114,-117 66,0 118,50 118,117 0,67 -52,118 -118,118 -65,0 -114,-51 -114,-118z"/>
  <path id="60" class="fil2" d="M29491 26074l93 0 0 -223c0,-52 31,-89 74,-89 45,0 68,34 68,85l0 227 93 0 0 -223c0,-52 32,-89 76,-89 45,0 69,34 69,85l0 227 93 0 0 -240c0,-95 -49,-155 -135,-155 -55,0 -103,19 -126,67 -19,-43 -55,-67 -109,-67 -50,0 -87,26 -103,63l0 -56 -93 0 0 388z"/>
  <path id="61" class="fil2" d="M30390 25880c0,114 84,202 194,202 65,0 110,-28 123,-65l0 57 93 0 0 -536 -93 0 0 205c-13,-37 -58,-65 -123,-65 -110,0 -194,88 -194,202zm93 0c0,-67 48,-117 114,-117 66,0 117,50 117,117 0,67 -51,118 -117,118 -66,0 -114,-51 -114,-118z"/>
  <path id="62" class="fil2" d="M30880 25880c0,116 94,205 212,205 117,0 211,-89 211,-205 0,-116 -94,-205 -211,-205 -118,0 -212,89 -212,205zm93 0c0,-68 51,-121 119,-121 67,0 119,53 119,121 0,68 -52,121 -119,121 -68,0 -119,-53 -119,-121z"/>
  <path id="63" class="fil2" d="M31612 26006c24,45 80,78 160,78 111,0 160,-57 160,-123 0,-56 -32,-90 -104,-116 -65,-23 -97,-27 -97,-56 0,-20 17,-34 46,-34 38,0 61,14 75,32l52 -55c-25,-33 -66,-57 -125,-57 -74,0 -138,41 -138,116 0,59 38,88 95,109 60,22 106,29 106,61 0,20 -16,42 -68,42 -50,0 -86,-22 -102,-48l-60 51z"/>
  <path id="64" class="fil2" d="M31987 25883c0,121 85,200 206,200 59,0 113,-16 163,-69l-56 -55c-28,29 -57,45 -104,45 -68,0 -113,-39 -116,-101l301 0c1,-15 1,-32 1,-32 0,-108 -76,-195 -191,-195 -116,0 -204,80 -204,204l0 3zm96 -44c4,-47 50,-84 108,-84 53,0 97,37 97,84l-205 0z"/>
  <path id="65" class="fil2" d="M32455 25920c0,111 81,164 177,164 97,0 178,-54 178,-166l0 -232 -94 0 0 226c0,60 -36,86 -83,86 -48,0 -84,-26 -84,-86l0 -226 -94 0 0 234z"/>
  <path id="66" class="fil2" d="M14475 26801c0,118 94,205 211,205 57,0 110,-19 155,-67l-58 -60c-26,27 -56,42 -97,42 -68,0 -118,-51 -118,-120 0,-69 50,-121 118,-121 41,0 71,16 97,43l58 -60c-45,-48 -98,-67 -155,-67 -117,0 -211,87 -211,205z"/>
  <path id="67" class="fil2" d="M14890 26802c0,116 95,205 212,205 117,0 211,-89 211,-205 0,-116 -94,-205 -211,-205 -117,0 -212,89 -212,205zm93 0c0,-68 51,-121 119,-121 67,0 119,53 119,121 0,67 -52,120 -119,120 -68,0 -119,-53 -119,-120z"/>
  <path id="68" class="fil2" d="M15394 26995l93 0 0 -223c0,-52 31,-89 74,-89 45,0 69,34 69,86l0 226 93 0 0 -223c0,-52 31,-89 76,-89 44,0 68,34 68,86l0 226 94 0 0 -239c0,-96 -49,-156 -135,-156 -56,0 -103,20 -127,68 -19,-43 -55,-68 -108,-68 -50,0 -88,27 -104,63l0 -55 -93 0 0 387z"/>
  <path id="69" class="fil2" d="M16054 27143l93 0 0 -204c13,36 59,65 123,65 109,0 194,-88 194,-202 0,-115 -85,-202 -194,-202 -64,0 -110,28 -123,64l0 -56 -93 0 0 535zm86 -341c0,-67 51,-118 118,-118 64,0 114,51 114,118 0,66 -50,117 -114,117 -67,0 -118,-51 -118,-117z"/>
  <path id="70" class="fil2" d="M16539 26842c0,110 81,163 177,163 96,0 178,-54 178,-166l0 -231 -94 0 0 225c0,61 -36,87 -84,87 -47,0 -83,-26 -83,-86l0 -226 -94 0 0 234z"/>
  <path id="71" class="fil2" d="M16986 26832c0,132 95,163 159,163 1,0 19,0 19,0l0 -87c0,0 -4,0 -4,0 -49,0 -81,-24 -81,-83l0 -132 85 0 0 -85 -85 0 0 -148 -93 0 0 372z"/>
  <path id="72" class="fil2" d="M17215 26802c0,114 84,202 193,202 66,0 111,-29 124,-65l0 56 93 0 0 -387 -93 0 0 56c-13,-36 -58,-64 -124,-64 -109,0 -193,87 -193,202zm93 0c0,-67 48,-118 113,-118 67,0 118,51 118,118 0,66 -51,117 -118,117 -65,0 -113,-51 -113,-117z"/>
  <path id="73" class="fil2" d="M17704 26802c0,114 85,202 194,202 65,0 110,-29 123,-65l0 56 93 0 0 -535 -93 0 0 204c-13,-36 -58,-64 -123,-64 -109,0 -194,87 -194,202zm93 0c0,-67 48,-118 114,-118 66,0 117,51 117,118 0,66 -51,117 -117,117 -66,0 -114,-51 -114,-117z"/>
  <path id="74" class="fil2" d="M18194 26802c0,116 95,205 212,205 117,0 211,-89 211,-205 0,-116 -94,-205 -211,-205 -117,0 -212,89 -212,205zm93 0c0,-68 51,-121 119,-121 67,0 119,53 119,121 0,67 -52,120 -119,120 -68,0 -119,-53 -119,-120z"/>
  <path id="75" class="fil2" d="M18698 26995l93 0 0 -203c0,-63 41,-103 104,-103 15,0 28,1 39,4l0 -90c-4,-1 -18,-3 -28,-3 -55,0 -97,26 -115,66l0 -58 -93 0 0 387z"/>
  <path id="76" class="fil2" d="M18926 26948c0,30 26,53 55,53 28,0 53,-23 53,-53 0,-30 -25,-53 -53,-53 -29,0 -55,23 -55,53z"/>
  <path id="77" class="fil2" d="M1854 27917l97 0 0 -187 108 0c90,0 176,-71 176,-174 0,-108 -90,-175 -176,-175l-205 0 0 536zm97 -274l0 -174 104 0c37,0 83,26 83,87 0,59 -46,87 -83,87l-104 0z"/>
  <path id="78" class="fil2" d="M2278 27723c0,115 84,202 193,202 65,0 111,-28 124,-64l0 56 93 0 0 -387 -93 0 0 56c-13,-36 -59,-65 -124,-65 -109,0 -193,88 -193,202zm93 0c0,-67 48,-117 113,-117 66,0 118,50 118,117 0,67 -52,118 -118,118 -65,0 -113,-51 -113,-118z"/>
  <path id="79" class="fil2" d="M2784 27917l93 0 0 -203c0,-64 40,-104 104,-104 15,0 28,2 38,4l0 -90c-3,0 -17,-2 -27,-2 -55,0 -97,25 -115,65l0 -57 -93 0 0 387z"/>
  <path id="80" class="fil2" d="M3058 27723c0,115 84,202 193,202 66,0 111,-28 124,-64l0 56 93 0 0 -387 -93 0 0 56c-13,-36 -58,-65 -124,-65 -109,0 -193,88 -193,202zm93 0c0,-67 48,-117 113,-117 67,0 118,50 118,117 0,67 -51,118 -118,118 -65,0 -113,-51 -113,-118z"/>
  <path id="81" class="fil2" d="M3830 27917l93 0 0 -223c0,-52 31,-89 74,-89 45,0 68,34 68,85l0 227 93 0 0 -223c0,-52 32,-89 76,-89 45,0 69,34 69,85l0 227 93 0 0 -240c0,-95 -49,-155 -135,-155 -55,0 -103,19 -126,68 -19,-43 -55,-68 -109,-68 -50,0 -87,26 -103,63l0 -55 -93 0 0 387z"/>
  <path id="82" class="fil2" d="M4473 27726c0,122 84,200 205,200 59,0 113,-16 163,-69l-56 -55c-28,30 -57,45 -104,45 -68,0 -112,-39 -116,-101l301 0c1,-15 1,-32 1,-32 0,-108 -76,-195 -191,-195 -116,0 -203,80 -203,204l0 3zm95 -44c4,-47 50,-84 108,-84 53,0 97,38 97,84l-205 0z"/>
  <polygon id="83" class="fil2" points="4945,27917 5039,27917 5039,27381 4945,27381 "/>
  <path id="84" class="fil2" d="M5135 27917l93 0 0 -223c0,-52 35,-89 85,-89 49,0 77,34 77,85l0 227 92 0 0 -240c0,-95 -51,-155 -142,-155 -53,0 -95,25 -112,61l0 -202 -93 0 0 536z"/>
  <path id="85" class="fil2" d="M5561 27723c0,116 94,205 212,205 117,0 211,-89 211,-205 0,-116 -94,-205 -211,-205 -118,0 -212,89 -212,205zm93 0c0,-67 50,-120 119,-120 67,0 119,53 119,120 0,68 -52,121 -119,121 -69,0 -119,-53 -119,-121z"/>
  <path id="86" class="fil2" d="M6065 27917l93 0 0 -203c0,-64 40,-104 104,-104 15,0 28,2 38,4l0 -90c-3,0 -17,-2 -27,-2 -56,0 -97,25 -115,65l0 -57 -93 0 0 387z"/>
  <path id="87" class="fil2" d="M6581 27723c0,115 85,202 194,202 65,0 111,-28 124,-64l0 56 93 0 0 -536 -93 0 0 205c-13,-36 -59,-65 -124,-65 -109,0 -194,88 -194,202zm93 0c0,-67 49,-117 114,-117 66,0 118,50 118,117 0,67 -52,118 -118,118 -65,0 -114,-51 -114,-118z"/>
  <path id="88" class="fil2" d="M7071 27726c0,122 85,200 206,200 59,0 113,-16 163,-69l-56 -55c-28,30 -57,45 -104,45 -68,0 -113,-39 -116,-101l301 0c1,-15 1,-32 1,-32 0,-108 -76,-195 -191,-195 -116,0 -204,80 -204,204l0 3zm96 -44c4,-47 50,-84 108,-84 53,0 97,38 97,84l-205 0z"/>
  <path id="89" class="fil2" d="M7512 27849c25,45 80,78 161,78 110,0 160,-56 160,-123 0,-56 -33,-90 -104,-115 -65,-24 -98,-28 -98,-57 0,-20 17,-34 46,-34 38,0 61,14 76,32l52 -55c-25,-33 -66,-57 -126,-57 -74,0 -138,42 -138,116 0,59 39,88 96,109 60,22 106,29 106,62 0,20 -16,41 -69,41 -50,0 -86,-22 -102,-48l-60 51z"/>
  <path id="90" class="fil2" d="M7888 27726c0,122 84,200 206,200 58,0 113,-16 162,-69l-56 -55c-28,30 -56,45 -103,45 -69,0 -113,-39 -116,-101l300 0c2,-15 2,-32 2,-32 0,-108 -76,-195 -192,-195 -116,0 -203,80 -203,204l0 3zm95 -44c4,-47 51,-84 108,-84 53,0 97,38 97,84l-205 0z"/>
  <path id="91" class="fil2" d="M8360 27917l93 0 0 -223c0,-52 32,-89 75,-89 44,0 68,34 68,85l0 227 93 0 0 -223c0,-52 31,-89 76,-89 44,0 68,34 68,85l0 227 94 0 0 -240c0,-95 -49,-155 -135,-155 -56,0 -103,19 -127,68 -18,-43 -54,-68 -108,-68 -50,0 -88,26 -104,63l0 -55 -93 0 0 387z"/>
  <path id="92" class="fil2" d="M9020 28065l94 0 0 -204c13,36 58,64 122,64 110,0 194,-87 194,-202 0,-114 -84,-202 -194,-202 -64,0 -109,29 -122,65l0 -56 -94 0 0 535zm87 -342c0,-67 50,-117 117,-117 65,0 114,50 114,117 0,67 -49,118 -114,118 -67,0 -117,-51 -117,-118z"/>
  <path id="93" class="fil2" d="M9493 27726c0,122 84,200 206,200 58,0 113,-16 163,-69l-56 -55c-29,30 -57,45 -104,45 -68,0 -113,-39 -116,-101l300 0c2,-15 2,-32 2,-32 0,-108 -76,-195 -191,-195 -116,0 -204,80 -204,204l0 3zm95 -44c4,-47 51,-84 109,-84 52,0 96,38 96,84l-205 0z"/>
  <path id="94" class="fil2" d="M9965 27917l93 0 0 -223c0,-52 37,-89 89,-89 53,0 82,34 82,85l0 227 93 0 0 -240c0,-95 -53,-155 -147,-155 -55,0 -99,26 -117,63l0 -55 -93 0 0 387z"/>
  <path id="95" class="fil2" d="M10415 27917l93 0 0 -223c0,-52 35,-89 85,-89 49,0 77,34 77,85l0 227 92 0 0 -240c0,-95 -51,-155 -142,-155 -53,0 -95,25 -112,61l0 -202 -93 0 0 536z"/>
  <path id="96" class="fil2" d="M10841 27723c0,116 94,205 212,205 117,0 211,-89 211,-205 0,-116 -94,-205 -211,-205 -118,0 -212,89 -212,205zm93 0c0,-67 50,-120 119,-120 67,0 119,53 119,120 0,68 -52,121 -119,121 -69,0 -119,-53 -119,-121z"/>
  <polygon id="97" class="fil2" points="11323,27832 11255,28015 11325,28015 11422,27832 "/>
  <path id="98" class="fil2" d="M11761 27917l93 0 0 -303 74 0 0 -84 -74 0 0 -27c0,-40 16,-54 51,-54 0,0 35,0 35,0l0 -78c0,0 -39,0 -40,0 -30,0 -67,2 -96,26 -29,23 -43,54 -43,114l0 406z"/>
  <path id="99" class="fil2" d="M11969 27726c0,122 85,200 206,200 58,0 113,-16 163,-69l-56 -55c-29,30 -57,45 -104,45 -68,0 -113,-39 -116,-101l300 0c2,-15 2,-32 2,-32 0,-108 -76,-195 -191,-195 -116,0 -204,80 -204,204l0 3zm95 -44c4,-47 51,-84 109,-84 53,0 96,38 96,84l-205 0z"/>
  <path id="100" class="fil2" d="M12424 27722c0,119 95,206 212,206 57,0 110,-20 155,-67l-58 -60c-26,27 -56,42 -97,42 -68,0 -119,-51 -119,-121 0,-69 51,-120 119,-120 41,0 71,15 97,42l58 -60c-45,-47 -98,-67 -155,-67 -117,0 -212,87 -212,205z"/>
  <path id="101" class="fil2" d="M12863 27917l93 0 0 -223c0,-52 34,-89 84,-89 50,0 77,34 77,85l0 227 93 0 0 -240c0,-95 -51,-155 -142,-155 -54,0 -95,25 -112,61l0 -202 -93 0 0 536z"/>
  <path id="102" class="fil2" d="M13288 27726c0,122 85,200 206,200 59,0 113,-16 163,-69l-56 -55c-28,30 -57,45 -104,45 -68,0 -113,-39 -116,-101l301 0c1,-15 1,-32 1,-32 0,-108 -76,-195 -191,-195 -116,0 -204,80 -204,204l0 3zm96 -44c4,-47 50,-84 108,-84 53,0 97,38 97,84l-205 0z"/>
  <path id="103" class="fil2" d="M14002 27723c0,115 84,202 193,202 66,0 111,-28 124,-64l0 56 93 0 0 -387 -93 0 0 56c-13,-36 -58,-65 -124,-65 -109,0 -193,88 -193,202zm93 0c0,-67 48,-117 114,-117 66,0 117,50 117,117 0,67 -51,118 -117,118 -66,0 -114,-51 -114,-118z"/>
  <path id="104" class="fil2" d="M14508 27917l94 0 0 -56c13,36 58,64 123,64 109,0 193,-87 193,-202 0,-114 -84,-202 -193,-202 -65,0 -110,29 -123,65l0 -205 -94 0 0 536zm87 -194c0,-67 51,-117 117,-117 65,0 114,50 114,117 0,67 -49,118 -114,118 -66,0 -117,-51 -117,-118z"/>
  <path id="105" class="fil2" d="M14981 27723c0,115 85,202 194,202 65,0 110,-28 123,-64l0 56 93 0 0 -387 -93 0 0 56c-13,-36 -58,-65 -123,-65 -109,0 -194,88 -194,202zm93 0c0,-67 48,-117 114,-117 66,0 117,50 117,117 0,67 -51,118 -117,118 -66,0 -114,-51 -114,-118z"/>
  <path id="106" class="fil2" d="M15457 27849c25,45 80,78 161,78 110,0 160,-56 160,-123 0,-56 -33,-90 -104,-115 -65,-24 -98,-28 -98,-57 0,-20 17,-34 46,-34 38,0 61,14 76,32l52 -55c-25,-33 -66,-57 -126,-57 -74,0 -137,42 -137,116 0,59 38,88 95,109 60,22 106,29 106,62 0,20 -16,41 -69,41 -50,0 -86,-22 -102,-48l-60 51z"/>
  <path id="107" class="fil2" d="M16079 27723c0,115 84,202 193,202 65,0 111,-28 124,-64l0 56 93 0 0 -536 -93 0 0 205c-13,-36 -59,-65 -124,-65 -109,0 -193,88 -193,202zm93 0c0,-67 48,-117 113,-117 66,0 118,50 118,117 0,67 -52,118 -118,118 -65,0 -113,-51 -113,-118z"/>
  <path id="108" class="fil2" d="M16569 27726c0,122 84,200 205,200 59,0 113,-16 163,-69l-56 -55c-28,30 -57,45 -103,45 -69,0 -113,-39 -116,-101l300 0c1,-15 1,-32 1,-32 0,-108 -76,-195 -191,-195 -116,0 -203,80 -203,204l0 3zm95 -44c4,-47 51,-84 108,-84 53,0 97,38 97,84l-205 0z"/>
  <path id="109" class="fil2" d="M17009 27849c25,45 80,78 161,78 111,0 160,-56 160,-123 0,-56 -33,-90 -104,-115 -65,-24 -98,-28 -98,-57 0,-20 17,-34 47,-34 37,0 60,14 75,32l52 -55c-25,-33 -66,-57 -126,-57 -74,0 -137,42 -137,116 0,59 38,88 95,109 60,22 106,29 106,62 0,20 -16,41 -69,41 -49,0 -86,-22 -102,-48l-60 51z"/>
  <path id="110" class="fil2" d="M17402 27917l93 0 0 -223c0,-52 37,-89 89,-89 52,0 81,34 81,85l0 227 94 0 0 -240c0,-95 -54,-155 -147,-155 -56,0 -100,26 -117,63l0 -55 -93 0 0 387z"/>
  <path id="111" class="fil2" d="M17835 27726c0,122 85,200 206,200 58,0 113,-16 163,-69l-56 -55c-29,30 -57,45 -104,45 -68,0 -113,-39 -116,-101l300 0c2,-15 2,-32 2,-32 0,-108 -76,-195 -191,-195 -116,0 -204,80 -204,204l0 3zm95 -44c4,-47 51,-84 109,-84 53,0 96,38 96,84l-205 0z"/>
  <path id="112" class="fil2" d="M18290 27722c0,119 95,206 212,206 57,0 110,-20 155,-67l-58 -60c-26,27 -56,42 -97,42 -68,0 -119,-51 -119,-121 0,-69 51,-120 119,-120 41,0 71,15 97,42l58 -60c-45,-47 -98,-67 -155,-67 -117,0 -212,87 -212,205z"/>
  <path id="113" class="fil2" d="M18706 27726c0,122 84,200 206,200 58,0 113,-16 163,-69l-56 -55c-29,30 -57,45 -104,45 -68,0 -113,-39 -116,-101l300 0c2,-15 2,-32 2,-32 0,-108 -76,-195 -192,-195 -115,0 -203,80 -203,204l0 3zm95 -44c4,-47 51,-84 108,-84 53,0 97,38 97,84l-205 0z"/>
  <path id="114" class="fil2" d="M19147 27849c24,45 80,78 160,78 111,0 160,-56 160,-123 0,-56 -32,-90 -104,-115 -65,-24 -97,-28 -97,-57 0,-20 17,-34 46,-34 38,0 61,14 75,32l52 -55c-25,-33 -66,-57 -126,-57 -73,0 -137,42 -137,116 0,59 38,88 95,109 60,22 106,29 106,62 0,20 -16,41 -68,41 -50,0 -86,-22 -102,-48l-60 51z"/>
  <path id="115" class="fil2" d="M19509 27849c25,45 80,78 161,78 110,0 160,-56 160,-123 0,-56 -33,-90 -104,-115 -65,-24 -98,-28 -98,-57 0,-20 17,-34 46,-34 38,0 61,14 76,32l52 -55c-25,-33 -66,-57 -126,-57 -74,0 -138,42 -138,116 0,59 39,88 96,109 60,22 106,29 106,62 0,20 -16,41 -69,41 -50,0 -86,-22 -102,-48l-60 51z"/>
  <path id="116" class="fil2" d="M20064 27493l69 0 76 -112 -106 0 -39 112zm-179 230c0,115 84,202 193,202 66,0 111,-28 124,-64l0 56 93 0 0 -387 -93 0 0 56c-13,-36 -58,-65 -124,-65 -109,0 -193,88 -193,202zm93 0c0,-67 48,-117 113,-117 66,0 118,50 118,117 0,67 -52,118 -118,118 -65,0 -113,-51 -113,-118z"/>
  <path id="117" class="fil2" d="M20391 27917l93 0 0 -203c0,-64 41,-104 104,-104 15,0 28,2 39,4l0 -90c-4,0 -18,-2 -28,-2 -55,0 -97,25 -115,65l0 -57 -93 0 0 387z"/>
  <path id="118" class="fil2" d="M20753 27485c30,0 56,-24 56,-55 0,-31 -26,-55 -56,-55 -29,0 -55,24 -55,55 0,31 26,55 55,55zm-46 432l93 0 0 -387 -93 0 0 387z"/>
  <path id="119" class="fil2" d="M20881 27723c0,115 84,202 193,202 66,0 111,-28 124,-64l0 56 93 0 0 -387 -93 0 0 56c-13,-36 -58,-65 -124,-65 -109,0 -193,88 -193,202zm93 0c0,-67 48,-117 114,-117 66,0 117,50 117,117 0,67 -51,118 -117,118 -66,0 -114,-51 -114,-118z"/>
  <path id="120" class="fil2" d="M21357 27849c25,45 80,78 161,78 110,0 159,-56 159,-123 0,-56 -32,-90 -103,-115 -66,-24 -98,-28 -98,-57 0,-20 17,-34 46,-34 38,0 61,14 75,32l53 -55c-26,-33 -66,-57 -126,-57 -74,0 -138,42 -138,116 0,59 39,88 96,109 59,22 106,29 106,62 0,20 -17,41 -69,41 -50,0 -86,-22 -102,-48l-60 51z"/>
  <path id="121" class="fil2" d="M21978 27723c0,115 85,202 194,202 65,0 111,-28 124,-64l0 56 93 0 0 -536 -93 0 0 205c-13,-36 -59,-65 -124,-65 -109,0 -194,88 -194,202zm93 0c0,-67 49,-117 114,-117 66,0 118,50 118,117 0,67 -52,118 -118,118 -65,0 -114,-51 -114,-118z"/>
  <path id="122" class="fil2" d="M22468 27723c0,116 95,205 212,205 117,0 212,-89 212,-205 0,-116 -95,-205 -212,-205 -117,0 -212,89 -212,205zm93 0c0,-67 51,-120 119,-120 67,0 119,53 119,120 0,68 -52,121 -119,121 -68,0 -119,-53 -119,-121z"/>
  <path id="123" class="fil2" d="M23200 27849c25,45 80,78 161,78 110,0 160,-56 160,-123 0,-56 -33,-90 -104,-115 -65,-24 -98,-28 -98,-57 0,-20 17,-34 46,-34 38,0 61,14 76,32l52 -55c-25,-33 -66,-57 -126,-57 -74,0 -137,42 -137,116 0,59 38,88 95,109 60,22 106,29 106,62 0,20 -16,41 -69,41 -50,0 -86,-22 -102,-48l-60 51z"/>
  <path id="124" class="fil2" d="M23576 27726c0,122 84,200 206,200 58,0 113,-16 163,-69l-57 -55c-28,30 -56,45 -103,45 -69,0 -113,-39 -116,-101l300 0c2,-15 2,-32 2,-32 0,-108 -76,-195 -192,-195 -116,0 -203,80 -203,204l0 3zm95 -44c4,-47 51,-84 108,-84 53,0 97,38 97,84l-205 0z"/>
  <path id="125" class="fil2" d="M24044 27763c0,111 80,164 176,164 97,0 178,-54 178,-166l0 -231 -93 0 0 225c0,60 -36,87 -84,87 -48,0 -84,-27 -84,-87l0 -225 -93 0 0 233z"/>
  <path id="126" class="fil2" d="M24758 27917l93 0 0 -223c0,-52 37,-89 89,-89 52,0 81,34 81,85l0 227 94 0 0 -240c0,-95 -54,-155 -148,-155 -55,0 -99,26 -116,63l0 -55 -93 0 0 387z"/>
  <path id="127" class="fil2" d="M25191 27723c0,115 84,202 194,202 65,0 110,-28 123,-64l0 56 93 0 0 -387 -93 0 0 56c-13,-36 -58,-65 -123,-65 -110,0 -194,88 -194,202zm93 0c0,-67 48,-117 114,-117 66,0 117,50 117,117 0,67 -51,118 -117,118 -66,0 -114,-51 -114,-118z"/>
  <polygon id="128" class="fil2" points="25868,27941 26076,27530 25980,27530 25868,27759 25756,27530 25659,27530 "/>
  <path id="129" class="fil2" d="M26091 27726c0,122 85,200 206,200 58,0 113,-16 163,-69l-56 -55c-29,30 -57,45 -104,45 -68,0 -113,-39 -116,-101l300 0c2,-15 2,-32 2,-32 0,-108 -76,-195 -191,-195 -116,0 -204,80 -204,204l0 3zm95 -44c4,-47 51,-84 109,-84 53,0 96,38 96,84l-205 0z"/>
  <path id="130" class="fil2" d="M26547 27722c0,113 84,198 193,198 65,0 109,-26 126,-57l0 26c0,77 -40,114 -120,114 -49,0 -87,-26 -100,-60l-82 41c27,58 95,102 184,102 153,0 209,-97 209,-200l0 -356 -93 0 0 56c-13,-36 -59,-65 -124,-65 -109,0 -193,88 -193,201zm92 0c0,-66 49,-116 114,-116 66,0 118,50 118,116 0,66 -52,116 -118,116 -65,0 -114,-50 -114,-116z"/>
  <path id="131" class="fil2" d="M27036 27723c0,115 84,202 193,202 66,0 111,-28 124,-64l0 56 93 0 0 -387 -93 0 0 56c-13,-36 -58,-65 -124,-65 -109,0 -193,88 -193,202zm93 0c0,-67 48,-117 113,-117 66,0 118,50 118,117 0,67 -52,118 -118,118 -65,0 -113,-51 -113,-118z"/>
  <path id="132" class="fil2" d="M27525 27723c0,115 84,202 193,202 66,0 111,-28 124,-64l0 56 93 0 0 -536 -93 0 0 205c-13,-36 -58,-65 -124,-65 -109,0 -193,88 -193,202zm93 0c0,-67 48,-117 114,-117 66,0 117,50 117,117 0,67 -51,118 -117,118 -66,0 -114,-51 -114,-118z"/>
  <path id="133" class="fil2" d="M28015 27723c0,116 94,205 212,205 117,0 211,-89 211,-205 0,-116 -94,-205 -211,-205 -118,0 -212,89 -212,205zm93 0c0,-67 51,-120 119,-120 67,0 119,53 119,120 0,68 -52,121 -119,121 -68,0 -119,-53 -119,-121z"/>
  <path id="134" class="fil2" d="M28519 27917l93 0 0 -203c0,-64 40,-104 104,-104 15,0 28,2 39,4l0 -90c-4,0 -18,-2 -28,-2 -55,0 -97,25 -115,65l0 -57 -93 0 0 387z"/>
  <path id="135" class="fil2" d="M29045 27726c0,122 84,200 206,200 58,0 113,-16 162,-69l-56 -55c-28,30 -56,45 -103,45 -69,0 -113,-39 -116,-101l300 0c2,-15 2,-32 2,-32 0,-108 -76,-195 -192,-195 -116,0 -203,80 -203,204l0 3zm95 -44c4,-47 51,-84 108,-84 53,0 97,38 97,84l-205 0z"/>
  <path id="136" class="fil2" d="M29771 27917l93 0 0 -303 74 0 0 -84 -74 0 0 -27c0,-40 16,-54 52,-54 0,0 34,0 34,0l0 -78c0,0 -39,0 -40,0 -30,0 -66,2 -96,26 -28,23 -43,54 -43,114l0 406z"/>
  <path id="137" class="fil2" d="M29980 27726c0,122 84,200 205,200 59,0 113,-16 163,-69l-56 -55c-28,30 -57,45 -104,45 -68,0 -112,-39 -116,-101l301 0c1,-15 1,-32 1,-32 0,-108 -76,-195 -191,-195 -116,0 -203,80 -203,204l0 3zm95 -44c4,-47 50,-84 108,-84 53,0 97,38 97,84l-205 0z"/>
  <path id="138" class="fil2" d="M30435 27722c0,119 94,206 211,206 58,0 111,-20 155,-67l-57 -60c-26,27 -56,42 -98,42 -67,0 -118,-51 -118,-121 0,-69 51,-120 118,-120 42,0 72,15 98,42l57 -60c-44,-47 -97,-67 -155,-67 -117,0 -211,87 -211,205z"/>
  <path id="139" class="fil2" d="M30873 27917l93 0 0 -223c0,-52 35,-89 85,-89 49,0 77,34 77,85l0 227 93 0 0 -240c0,-95 -52,-155 -142,-155 -54,0 -96,25 -113,61l0 -202 -93 0 0 536z"/>
  <path id="140" class="fil2" d="M31299 27726c0,122 84,200 206,200 58,0 113,-16 163,-69l-56 -55c-29,30 -57,45 -104,45 -69,0 -113,-39 -116,-101l300 0c2,-15 2,-32 2,-32 0,-108 -76,-195 -192,-195 -116,0 -203,80 -203,204l0 3zm95 -44c4,-47 51,-84 108,-84 53,0 97,38 97,84l-205 0z"/>
  <path id="141" class="fil2" d="M13391 28645c0,116 94,205 212,205 117,0 211,-89 211,-205 0,-116 -94,-205 -211,-205 -118,0 -212,89 -212,205zm93 0c0,-68 51,-121 119,-121 67,0 119,53 119,121 0,67 -52,120 -119,120 -68,0 -119,-53 -119,-120z"/>
  <path id="142" class="fil2" d="M13890 28685c0,110 81,163 177,163 97,0 178,-53 178,-166l0 -231 -94 0 0 225c0,61 -36,87 -83,87 -48,0 -84,-26 -84,-86l0 -226 -94 0 0 234z"/>
  <path id="143" class="fil2" d="M14337 28675c0,132 95,163 159,163 1,0 19,0 19,0l0 -87c0,0 -4,0 -4,0 -49,0 -81,-24 -81,-82l0 -133 85 0 0 -85 -85 0 0 -148 -93 0 0 372z"/>
  <path id="144" class="fil2" d="M14588 28838l92 0 0 -202c0,-64 41,-104 105,-104 14,0 28,1 38,4l0 -90c-4,-1 -17,-2 -27,-2 -56,0 -97,25 -116,65l0 -58 -92 0 0 387z"/>
  <path id="145" class="fil2" d="M14862 28645c0,116 94,205 212,205 116,0 211,-89 211,-205 0,-116 -95,-205 -211,-205 -118,0 -212,89 -212,205zm93 0c0,-68 50,-121 119,-121 67,0 119,53 119,121 0,67 -52,120 -119,120 -69,0 -119,-53 -119,-120z"/>
  <path id="146" class="fil2" d="M15329 28771c25,45 80,77 161,77 111,0 160,-56 160,-123 0,-56 -33,-89 -104,-115 -65,-24 -98,-27 -98,-57 0,-20 17,-33 47,-33 37,0 60,13 75,32l52 -55c-25,-33 -66,-57 -126,-57 -74,0 -137,41 -137,116 0,59 38,88 95,109 60,21 106,29 106,61 0,20 -16,42 -69,42 -49,0 -86,-23 -102,-49l-60 52z"/>
  <path id="147" class="fil2" d="M15977 28987l94 0 0 -205c13,36 58,65 122,65 109,0 194,-88 194,-202 0,-115 -85,-202 -194,-202 -64,0 -109,28 -122,64l0 -56 -94 0 0 536zm87 -342c0,-67 50,-118 117,-118 65,0 114,51 114,118 0,67 -49,117 -114,117 -67,0 -117,-50 -117,-117z"/>
  <path id="148" class="fil2" d="M16467 28838l93 0 0 -202c0,-64 40,-104 104,-104 15,0 28,1 39,4l0 -90c-4,-1 -18,-2 -28,-2 -55,0 -97,25 -115,65l0 -58 -93 0 0 387z"/>
  <path id="149" class="fil2" d="M16741 28645c0,116 94,205 212,205 117,0 211,-89 211,-205 0,-116 -94,-205 -211,-205 -118,0 -212,89 -212,205zm93 0c0,-68 51,-121 119,-121 67,0 119,53 119,121 0,67 -52,120 -119,120 -68,0 -119,-53 -119,-120z"/>
  <path id="150" class="fil2" d="M17228 28643c0,113 84,198 193,198 65,0 110,-26 126,-56l0 26c0,77 -40,113 -119,113 -50,0 -87,-25 -101,-60l-81 41c26,59 95,102 184,102 152,0 208,-96 208,-199l0 -357 -93 0 0 56c-13,-36 -58,-64 -124,-64 -109,0 -193,87 -193,200zm93 0c0,-65 48,-116 114,-116 66,0 117,51 117,116 0,66 -51,116 -117,116 -66,0 -114,-50 -114,-116z"/>
  <path id="151" class="fil2" d="M17734 28838l93 0 0 -202c0,-64 41,-104 104,-104 15,0 28,1 39,4l0 -90c-4,-1 -18,-2 -28,-2 -55,0 -97,25 -115,65l0 -58 -93 0 0 387z"/>
  <path id="152" class="fil2" d="M18008 28645c0,114 85,202 194,202 65,0 110,-29 123,-65l0 56 93 0 0 -387 -93 0 0 56c-13,-36 -58,-64 -123,-64 -109,0 -194,87 -194,202zm93 0c0,-67 49,-118 114,-118 66,0 117,51 117,118 0,67 -51,117 -117,117 -65,0 -114,-50 -114,-117z"/>
  <path id="153" class="fil2" d="M18514 28838l93 0 0 -222c0,-53 32,-89 75,-89 44,0 68,33 68,85l0 226 93 0 0 -222c0,-53 32,-89 76,-89 45,0 68,33 68,85l0 226 94 0 0 -239c0,-95 -49,-155 -135,-155 -55,0 -103,19 -127,67 -18,-43 -54,-67 -108,-67 -50,0 -88,26 -104,63l0 -56 -93 0 0 387z"/>
  <path id="154" class="fil2" d="M19157 28645c0,114 85,202 194,202 65,0 110,-29 123,-65l0 56 93 0 0 -387 -93 0 0 56c-13,-36 -58,-64 -123,-64 -109,0 -194,87 -194,202zm93 0c0,-67 48,-118 114,-118 66,0 117,51 117,118 0,67 -51,117 -117,117 -66,0 -114,-50 -114,-117z"/>
  <path id="155" class="fil2" d="M19633 28771c25,45 80,77 161,77 110,0 160,-56 160,-123 0,-56 -33,-89 -104,-115 -65,-24 -98,-27 -98,-57 0,-20 17,-33 46,-33 38,0 61,13 76,32l52 -55c-25,-33 -66,-57 -126,-57 -74,0 -137,41 -137,116 0,59 38,88 95,109 60,21 106,29 106,61 0,20 -16,42 -69,42 -50,0 -86,-23 -102,-49l-60 52z"/>
  <path id="156" class="fil2" d="M20010 28792c0,29 26,53 54,53 29,0 53,-24 53,-53 0,-30 -24,-53 -53,-53 -28,0 -54,23 -54,53z"/>
 </g>
</svg>
