<?xml version="1.0" encoding="UTF-8"?>
<!DOCTYPE svg PUBLIC "-//W3C//DTD SVG 1.1//EN" "http://www.w3.org/Graphics/SVG/1.1/DTD/svg11.dtd">
<!-- Creator: CorelDRAW X8 -->
<svg xmlns="http://www.w3.org/2000/svg" xml:space="preserve" width="6947px" height="2268px" version="1.1" style="shape-rendering:geometricPrecision; text-rendering:geometricPrecision; image-rendering:optimizeQuality; fill-rule:evenodd; clip-rule:evenodd"
viewBox="0 0 434063 141689"
 xmlns:xlink="http://www.w3.org/1999/xlink">
 <defs>
  <style type="text/css">
   <![CDATA[
    .fil0 {fill:black}
    .fil2 {fill:#16C194}
    .fil1 {fill:#282828}
    .fil5 {fill:#3392CC}
    .fil4 {fill:#B3B60F}
    .fil6 {fill:#E85318}
    .fil3 {fill:#ECAA0C}
   ]]>
  </style>
 </defs>
 <g id="Camada_x0020_1">
  <metadata id="CorelCorpID_0Corel-Layer"/>
  <g id="_1760118581008">
   <g>
    <path class="fil0" d="M218724 131495l0 -1302c-2327,0 -1562,-301 -1562,10415 0,926 507,781 1562,781 0,-4139 -966,-10155 3125,-10155 3512,0 2604,5563 2604,10155l1302 0c0,-4132 -913,-10155 3124,-10155 3584,0 2604,5156 2604,10155l1302 0c0,-5382 1170,-11456 -3645,-11456 -2346,0 -2575,1191 -3906,2083 -313,-1172 -1580,-2083 -3125,-2083 -2033,0 -2273,817 -3385,1562z"/>
    <polygon class="fil0" points="144254,122642 154669,122642 154669,121340 145816,121340 145816,115351 153888,115351 153888,114049 145816,114049 145816,108581 154669,108581 154669,107279 144254,107279 "/>
    <path class="fil0" d="M241117 117434c0,-1282 283,-2567 809,-3357 1859,-2794 6743,-2004 6743,2836 0,6603 -7552,5815 -7552,521zm3385 5468c2714,0 2521,-721 4167,-1823l0 5729 1302 0 0 -15363 -1302 0 0 1562c-1407,-942 -1716,-1822 -4167,-1822 -3041,0 -4777,2956 -4848,5759 -75,2989 1733,5958 4848,5958z"/>
    <path class="fil0" d="M268198 112487c2106,0 3337,1515 3385,3645l-7031 0c465,-969 291,-1622 1100,-2546 497,-568 1574,-1099 2546,-1099zm-261 10415c2754,0 4752,-1553 4948,-3906 -3185,0 -684,2604 -4948,2604 -2345,0 -2957,-2071 -3385,-3906l8593 0c0,-3486 -959,-6509 -5208,-6509 -6374,0 -6374,11717 0,11717z"/>
    <path class="fil0" d="M182531 131234c2196,0 3598,1527 3645,3646l-7030 0c361,-1552 1080,-3646 3385,-3646zm-4948 4427c0,7141 8501,8067 9895,2083l-1562 0c-304,3653 -6659,3720 -6770,-1302l7811 0c1962,0 511,-6509 -4426,-6509 -1453,0 -2858,808 -3549,1658 -680,835 -1399,2715 -1399,4070z"/>
    <path class="fil0" d="M210132 140348c-2391,0 -2865,-68 -2865,-2604 0,-1469 4856,-1989 5989,-2083 0,1727 -101,4687 -3124,4687zm-3906 -7291l0 781c3117,-69 -611,-2604 4947,-2604 2638,0 2062,2096 1823,3125 -4280,997 -7291,426 -7291,4427 0,1983 2062,2864 4166,2864 2377,0 2276,-1197 3646,-1562 129,1552 623,1301 2603,1301 -28,-1285 -16,-1273 -1302,-1301 0,-7191 988,-10155 -4686,-10155 -1954,0 -3906,1189 -3906,3124z"/>
    <path class="fil0" d="M218724 121600c-4543,0 -3756,-3576 -716,-4101 1747,-302 2504,-139 3841,-846 0,1988 -217,4947 -3125,4947zm-3385 -6509c1906,0 -1009,-2604 4427,-2604 2250,0 2153,1707 1822,3124l-3767 660c-5417,923 -4678,6631 382,6631 1824,0 2597,-860 3646,-1562 690,1304 475,1302 2083,1302 995,0 95,80 781,-261 -133,-1594 -331,-711 -1562,-1302 0,-2179 110,-4640 12,-6782 -188,-4124 -6036,-3510 -7520,-2027 -486,486 -1852,2821 -304,2821z"/>
    <path class="fil0" d="M160137 140348c-4802,0 -4663,-6048 -2817,-8025 1525,-1631 6202,-2354 6202,4119 0,2013 -1510,3906 -3385,3906zm-5468 -5208c0,3641 1160,6510 5468,6510 6317,0 7098,-11717 -520,-11717 -2782,0 -4948,2461 -4948,5207z"/>
    <path class="fil0" d="M225494 113528c0,1881 -208,3104 3114,3917 2388,585 3917,201 3917,2332 0,1971 -1875,1823 -3125,1823 -1839,0 -2824,-780 -2864,-2604l-1562 0c455,5476 9113,4804 9113,781 0,-5013 -7291,-2184 -7291,-5468 0,-2365 4225,-2203 5143,-976 996,1330 -272,1497 1888,1497 0,-4263 -4995,-4094 -6963,-3057 -570,301 -1370,1069 -1370,1755z"/>
    <path class="fil0" d="M156232 113528c0,2153 -96,3112 3116,3914 2421,604 3914,268 3914,2335 0,1971 -1875,1823 -3125,1823 -1839,0 -2823,-780 -2864,-2604l-1562 0c455,5476 9113,4804 9113,781 0,-4949 -7290,-2212 -7290,-5468 0,-1668 1692,-1822 2864,-1822 4042,0 1008,2343 4166,2343 0,-4153 -4896,-4146 -6962,-3057 -571,301 -1370,1069 -1370,1755z"/>
    <path class="fil0" d="M252314 118476c0,4870 4766,5808 7551,2603l0 1563c2328,0 1563,301 1563,-10416 0,-925 -508,-781 -1563,-781 0,5284 1021,10155 -3645,10155 -1287,0 -2344,-1056 -2344,-2343l0 -7812 -1562 0 0 7031z"/>
    <path class="fil0" d="M197112 118736c0,2623 1503,4166 4166,4166 1768,0 2345,-866 3385,-1562l0 1302c2328,0 1563,301 1563,-10416 0,-925 -508,-781 -1563,-781 0,4003 960,10155 -3124,10155 -3921,0 -2864,-3590 -2864,-10155l-1563 0 0 7291z"/>
    <path class="fil0" d="M179666 119257c0,2330 1539,3645 3906,3645 2203,0 2413,-997 3645,-1823l0 1563 1302 0 0 -11197c-2194,0 -1588,468 -1551,6260 9,1449 -139,2130 -797,2849 -1433,1564 -5203,1819 -5203,-2078l0 -7031 -1302 0 0 7812z"/>
    <path class="fil0" d="M168209 131755l0 -1562 -1302 0 0 11196c2192,0 1591,-467 1552,-6260 -16,-2333 908,-3895 3396,-3895 3576,0 2604,5403 2604,10155l1302 0c0,-5833 1202,-11456 -3906,-11456 -2203,0 -2413,997 -3646,1822z"/>
    <path class="fil0" d="M143733 135140c0,1859 37,3596 1482,5028 1895,1876 4688,2015 6754,344 831,-671 1368,-1651 1398,-3028 -1989,0 -1052,267 -2031,1614 -1840,2529 -6041,963 -6041,-2135 0,-1713 -212,-3325 987,-4742 988,-1166 3756,-1520 5054,264 979,1346 42,1614 2031,1614 -131,-5898 -9634,-5508 -9634,1041z"/>
    <path class="fil0" d="M189040 135661c0,6397 5818,7115 8410,4765 1231,-1116 868,-1656 1485,-2942l-1562 0c-333,3993 -6770,3967 -6770,-1042 0,-2168 274,-5208 3385,-5208 1888,0 3241,1138 3385,2865l1302 0c0,-5640 -9635,-6002 -9635,1562z"/>
    <path class="fil0" d="M166907 109102l0 2343 -1822 0 0 1302 1822 0c0,7729 -939,9895 3385,9895 734,0 483,-113 782,-521 -336,-1256 -122,-607 -1287,-797 -801,-130 -1317,-97 -1317,-1026l0 -7551c2591,0 2346,185 2604,-781 -469,-675 139,-521 -2604,-521l0 -3124c-1055,0 -1563,-145 -1563,781z"/>
    <path class="fil0" d="M191644 111445l-1823 0 0 1302 1823 0c0,8398 -962,9895 3385,9895 733,0 482,-113 781,-521 -325,-1217 -110,-645 -1302,-781 -1971,-225 -1302,6 -1302,-8593 2592,0 2346,185 2604,-781 -469,-675 140,-521 -2604,-521l0 -3124 -1562 0 0 3124z"/>
    <path class="fil0" d="M201018 130193l-1823 0 0 1302 1823 0 0 7811c0,2421 2318,2083 3906,2083l0 -1301c-3321,0 -2604,735 -2604,-8593l2604 0 0 -1302 -2604 0 0 -3125 -1302 0 0 3125z"/>
    <path class="fil0" d="M209871 113007l0 -1562c-2327,0 -1562,-301 -1562,10416 0,925 507,781 1562,781 0,-3533 -650,-7869 1394,-9282 1347,-932 3033,-152 3033,-1394 0,-2424 -4422,1038 -4427,1041z"/>
    <path class="fil0" d="M173938 113268l0 -1823 -1302 0 0 11197 1302 0c0,-6844 -952,-9895 4426,-9895 0,-1363 49,-2110 -2426,-1129l-2000 1650z"/>
   </g>
   <g>
    <path class="fil1" d="M237993 60149c0,-8648 4525,-16404 13019,-16404 4143,0 8570,878 11093,4269 3518,4729 3489,8097 3489,13697 0,3905 -1809,8595 -3706,10616 -8291,8829 -23895,5038 -23895,-12178zm0 -15623l0 -5989 -6770 0 0 59889 7030 0 0 -22133c1126,754 753,942 2524,2424 3965,3318 7061,4346 12839,4346 8714,0 15413,-5768 17938,-13308 476,-1423 769,-2615 1037,-4171 496,-2885 652,-6678 154,-9722 -267,-1631 -491,-2899 -932,-4276 -2497,-7797 -8663,-14090 -17676,-14090 -4386,0 -6643,55 -10592,2166 -998,534 -2244,1443 -3019,2190 -459,442 -888,844 -1293,1310 -505,580 -623,951 -1240,1364z"/>
    <path class="fil1" d="M365322 43745c11906,0 12362,11932 12758,12759l-25517 0c364,-760 1294,-12759 12759,-12759zm-20050 15883c0,7071 1670,12581 5283,16850 6729,7950 20469,8783 27850,2222 1352,-1202 2872,-2906 3757,-4574 489,-922 1024,-1946 1354,-2814 1358,-3574 1648,-2831 -5696,-2831 -1349,0 -583,2325 -3803,5310 -5828,5403 -21454,3975 -21454,-11038l32808 0c0,-7720 -268,-12497 -5053,-18642 -1339,-1720 -3453,-3416 -5413,-4482 -3970,-2159 -6628,-2133 -10885,-2133 -11336,0 -18748,10590 -18748,22132z"/>
    <path class="fil1" d="M293976 77074c-4517,0 -9374,-942 -9374,-6770 0,-10961 15566,-6192 21872,-10415 0,5664 288,9243 -2416,12426 -2085,2455 -5667,4759 -10082,4759zm-14842 -24997c7711,0 6837,493 7088,-1505 89,-712 237,-1302 426,-1917 1600,-5211 6208,-5171 11494,-5171 6072,0 8332,2157 8332,7291 0,7615 -13046,3781 -21962,8243 -11854,5932 -9101,24045 7641,24045 11082,0 12843,-5305 14842,-6770 0,6217 6017,5989 9634,5989 2105,0 1563,-1257 1563,-5208 0,-1268 -1543,-672 -2872,-773 -2602,-198 -2076,-1671 -2076,-5736l2 -20312c46,-8667 -6239,-12757 -14063,-12757 -7947,0 -14941,155 -18664,8155 -798,1714 -1385,4007 -1385,6426z"/>
    <path class="fil1" d="M185916 68742c0,8470 6112,14321 14581,14321 10103,0 11775,-5165 14321,-7030l0 5989c3822,0 6770,594 6770,-782l0 -42703 -7030 0 0 23695c0,4656 -910,7434 -2860,10160 -4789,6694 -18752,6249 -18752,-4171l0 -29684 -7030 0 0 30205z"/>
    <path class="fil1" d="M143993 22654l0 58586c0,600 182,782 782,782l36714 0 0 -6510 -30205 0 0 -53640 -6509 0c-600,0 -782,182 -782,782z"/>
    <path class="fil1" d="M325483 38537l-7291 0c0,3597 -542,5989 781,5989l6510 0 0 29684c0,7795 7718,8072 13019,8072 1445,0 1544,-260 2864,-260l0 -5729c-3096,0 -8853,465 -8853,-2864l0 -28903 8853 0 0 -5989 -8853 0 0 -11717c0,-600 -181,-781 -781,-781l-6249 0 0 12498z"/>
    <polygon class="fil1" points="393183,82022 400213,82022 400213,21872 393183,21872 "/>
    <path class="fil1" d="M410108 82022l6249 0c600,0 781,-182 781,-782l0 -58586c0,-600 -181,-782 -781,-782l-6249 0 0 60150z"/>
    <path class="fil1" d="M426773 81240c0,600 181,782 781,782l6249 0 0 -43485 -7030 0 0 42703z"/>
    <polygon class="fil1" points="426512,32027 434063,32027 434063,23695 426512,23695 "/>
   </g>
   <polygon class="fil2" points="0,53119 13019,53119 13019,36714 48171,36714 48171,52598 62493,52598 62493,6770 0,6770 "/>
   <path class="fil3" d="M66398 57024l-8592 0 0 36715c0,600 181,781 781,781l44786 0c600,0 781,-181 781,-781l0 -44526 -37756 0 0 7811z"/>
   <polygon class="fil4" points="5208,107019 53639,107019 53639,57024 48171,57024 48171,71866 13019,71866 13019,57024 5208,57024 "/>
   <polygon class="fil5" points="66919,45047 95301,45047 95301,0 66919,0 "/>
   <polygon class="fil6" points="17185,67700 44266,67700 44266,40881 17185,40881 "/>
  </g>
 </g>
</svg>
