<?xml version="1.0" encoding="UTF-8"?>
<!DOCTYPE svg PUBLIC "-//W3C//DTD SVG 1.1//EN" "http://www.w3.org/Graphics/SVG/1.1/DTD/svg11.dtd">
<!-- Creator: CorelDRAW X8 -->
<svg xmlns="http://www.w3.org/2000/svg" xml:space="preserve" width="747px" height="464px" version="1.1" style="shape-rendering:geometricPrecision; text-rendering:geometricPrecision; image-rendering:optimizeQuality; fill-rule:evenodd; clip-rule:evenodd"
viewBox="0 0 5864 3645"
 xmlns:xlink="http://www.w3.org/1999/xlink">
 <defs>
  <style type="text/css">
   <![CDATA[
    .fil0 {fill:black}
   ]]>
  </style>
 </defs>
 <g id="Camada_x0020_1">
  <metadata id="CorelCorpID_0Corel-Layer"/>
  <path class="fil0" d="M4299 1841c-1,1 -1,3 -2,4 0,2 -1,3 -1,5 0,1 -1,3 -1,4 0,2 -1,3 -1,5 0,1 0,3 -1,4 0,2 0,3 0,4 0,2 -1,3 -1,4 0,1 0,2 0,3 0,3 -1,7 -1,10 0,4 0,8 0,11 0,4 0,7 0,11 1,3 1,7 1,10 1,4 1,8 1,11 1,4 1,7 2,11 0,3 1,7 2,10 0,4 1,7 2,10 0,3 1,6 2,9 1,3 2,7 3,11 1,3 3,7 4,11 1,4 3,8 5,12 1,4 3,8 5,12 2,4 4,8 6,12 2,4 4,8 7,11 2,4 5,7 7,10 3,-7 5,-15 7,-23 3,-8 4,-16 6,-24 2,-9 3,-17 4,-26 1,-8 2,-17 2,-25 0,-8 -1,-17 -2,-24 -1,-8 -3,-16 -5,-23 -3,-8 -6,-15 -10,-21 -3,-6 -8,-12 -14,-18 0,0 -1,-1 -2,-2 -1,0 -2,-1 -3,-2 -1,-1 -2,-2 -3,-3 -1,-1 -2,-2 -4,-3 -1,-1 -2,-2 -3,-3 -2,-1 -3,-2 -4,-3 -2,-1 -3,-2 -4,-3 -2,-1 -3,-1 -4,-2zm-1471 528c-12,-87 -13,-176 -5,-265 8,-90 27,-179 54,-268 27,-89 62,-177 106,-262 43,-86 94,-169 152,-249 58,-79 122,-156 192,-227 70,-71 145,-137 225,-197 80,-60 165,-114 252,-161 88,-46 180,-85 273,-115 5,-1 9,-3 13,-5 4,-2 8,-4 10,-6 3,-2 5,-5 6,-7 1,-2 1,-5 0,-7 -2,-2 -4,-4 -8,-7 -4,-2 -10,-4 -17,-5 -7,-2 -16,-4 -27,-5 -10,-1 -23,-2 -38,-3 -95,-4 -198,26 -303,82 -104,55 -211,137 -314,235 -103,98 -202,214 -292,338 -90,124 -170,258 -234,391 -65,134 -114,267 -143,393 -28,126 -35,244 -15,345 20,102 67,187 146,247 80,61 192,96 343,98 28,1 57,-1 88,-4 30,-3 61,-8 93,-15 31,-7 63,-15 95,-25 31,-10 63,-21 93,-34 31,-13 61,-27 90,-43 28,-16 56,-33 81,-51 26,-18 50,-37 71,-57 21,-21 40,-42 57,-65 5,-8 10,-14 15,-21 4,-6 8,-11 12,-16 3,-5 6,-10 9,-14 2,-4 5,-9 7,-13 2,-4 4,-8 7,-13 2,-4 4,-9 6,-15 2,-5 5,-11 8,-18 2,-7 5,-15 9,-24 28,-4 55,-7 81,-11 27,-4 52,-8 77,-13 26,-5 50,-11 75,-18 24,-6 49,-14 73,-23 25,-9 50,-20 75,-32 26,-12 52,-26 79,-42 27,-16 54,-35 84,-55 29,-21 59,-44 91,-70l-6 -5 -7 -4 -6 -5 -6 -4 -7 -5 -6 -4 -6 -4 -7 -5c0,0 -1,-1 -1,-1 0,-1 -1,-1 -1,-1 0,-1 -1,-1 -1,-1 -1,-1 -1,-1 -1,-1 -1,-1 -1,-1 -2,-1 0,0 -1,-1 -1,-1 0,0 -1,0 -1,0 -1,-1 -1,-1 -2,-1l-3 -2 -4 -3 -3 -2 -4 -3 -4 -2 -3 -3 -4 -2 -3 -3 -9 9 -8 9 -8 9 -9 9 -8 9 -9 9 -8 9 -8 9c-1,-6 -1,-13 -1,-20 0,-7 -1,-15 -1,-23 0,-8 -1,-17 -1,-25 -1,-9 -2,-18 -3,-27 -1,-10 -2,-19 -4,-28 -2,-10 -5,-19 -8,-29 -2,-9 -6,-19 -10,-28 -4,-10 -9,-19 -15,-28 -4,-5 -9,-10 -14,-15 -5,-6 -9,-11 -14,-17 -5,-5 -9,-10 -14,-16 -5,-5 -10,-10 -15,-14 -5,-5 -10,-9 -16,-12 -5,-3 -10,-6 -16,-8 -6,-1 -12,-2 -19,-1 -6,0 -13,2 -20,5 -11,5 -20,11 -27,18 -8,8 -14,16 -18,26 -5,9 -8,19 -10,30 -2,11 -3,22 -3,33 0,12 1,24 2,36 1,11 3,23 5,35 2,11 4,22 6,33 2,10 5,20 7,29 1,6 3,13 5,19 2,6 4,12 7,18 2,6 5,12 8,18 3,5 6,11 9,17 4,5 7,11 11,16 4,6 8,11 13,16 4,5 8,10 13,15 5,5 10,10 15,15 -17,8 -33,14 -49,20 -17,6 -33,12 -49,16 -16,5 -32,9 -47,12 -16,4 -31,6 -46,9 -15,2 -30,4 -45,5 -14,1 -29,2 -42,2 -14,0 -28,0 -41,-1 -13,0 -26,-1 -38,-2 -2,-15 -4,-29 -7,-42 -3,-13 -6,-26 -11,-38 -4,-12 -9,-23 -15,-34 -6,-11 -13,-22 -20,-32 -8,-10 -16,-19 -25,-29 -9,-9 -19,-18 -30,-26 -11,-9 -22,-17 -35,-25 -12,-8 -25,-16 -39,-23 -40,-17 -78,-21 -114,-15 -36,5 -70,20 -100,41 -30,22 -56,49 -76,81 -21,31 -36,66 -44,102 -8,35 -9,71 -1,105 7,34 23,65 49,91 26,26 62,47 109,60 48,12 107,16 179,10 -7,-5 -16,-10 -27,-15 -12,-4 -25,-9 -39,-14 -15,-6 -30,-11 -46,-17 -16,-6 -31,-12 -47,-19 -15,-6 -30,-14 -43,-22 -13,-8 -25,-17 -34,-26 -10,-10 -17,-20 -21,-32 -4,-11 -5,-24 -2,-37 4,-17 8,-34 12,-51 5,-17 10,-33 16,-49 6,-16 12,-31 19,-44 7,-14 15,-26 23,-37 9,-11 18,-20 29,-27 10,-6 21,-11 33,-13 13,-1 26,-1 40,3 15,4 31,12 47,22 77,50 123,102 142,154 20,52 15,103 -9,152 -24,49 -67,96 -122,137 -55,41 -122,76 -194,104 -73,28 -151,49 -227,59 -77,9 -153,9 -220,-4 -68,-14 -128,-40 -174,-82 -45,-41 -77,-99 -87,-174zm-1138 213c-1,1 -3,1 -4,3 -1,1 -2,3 -3,4 -1,2 -2,4 -3,6 -1,3 -2,5 -3,7 -1,3 -1,5 -2,7 -1,2 -1,5 -2,7 -1,2 -1,4 -2,5 0,2 0,3 -1,5 -1,4 -1,8 -2,13 -1,4 -1,9 -2,13 0,5 -1,10 -1,14 0,5 0,10 0,14 0,5 0,10 0,14 0,5 0,10 1,14 0,5 0,9 1,14 0,5 1,9 1,13 1,5 2,10 3,15 1,6 2,11 3,17 2,6 3,12 5,18 2,7 4,13 6,19 2,6 5,12 8,18 2,6 5,12 9,17 3,5 6,10 10,15 4,4 8,8 12,11 2,-4 4,-8 5,-12 2,-3 4,-7 5,-11 2,-4 3,-8 5,-12 2,-4 3,-8 4,-12 2,-4 3,-8 4,-12 2,-4 3,-8 4,-12 1,-4 2,-8 3,-12 1,-4 2,-8 3,-13 2,-6 3,-12 4,-19 1,-6 2,-13 2,-19 1,-7 1,-13 1,-20 0,-7 0,-13 -1,-20 0,-7 -1,-13 -3,-19 -1,-7 -3,-13 -5,-19 -3,-6 -5,-12 -9,-18 -3,-6 -6,-11 -11,-16 -1,-1 -2,-2 -3,-4 -1,-1 -3,-3 -5,-5 -2,-2 -4,-4 -6,-6 -2,-2 -4,-4 -7,-7 -2,-2 -4,-4 -6,-6 -3,-1 -5,-3 -7,-5 -2,-1 -4,-2 -6,-3 -2,-1 -4,-1 -5,-1zm134 254c59,-23 91,-62 103,-111 12,-49 4,-110 -17,-177 -22,-68 -57,-142 -99,-221 -41,-79 -90,-161 -139,-243 -49,-83 -99,-166 -142,-245 -43,-79 -80,-155 -103,-223 -24,-69 -35,-131 -27,-182 9,-51 36,-92 90,-118 -16,13 -24,36 -26,66 -1,30 4,67 15,108 10,42 26,89 46,139 20,50 43,103 70,156 26,53 55,108 85,161 30,53 62,104 93,153 31,48 62,93 92,132 30,39 58,73 83,99 4,-1 11,-3 20,-6 8,-3 18,-6 29,-10 10,-4 22,-8 34,-12 12,-4 25,-9 37,-13 12,-5 24,-9 35,-13 12,-4 22,-8 31,-11 9,-3 16,-6 22,-8 5,-2 8,-3 9,-3 5,-1 9,-2 14,-2 4,-1 9,-1 12,-1 4,0 8,1 11,1 3,1 6,3 9,4 2,2 4,4 5,6 1,2 2,5 2,7 0,3 0,6 -2,10 -1,3 -3,7 -6,11 -8,10 -16,19 -24,26 -7,8 -15,14 -23,19 -9,5 -17,9 -26,13 -9,4 -18,7 -27,11 -9,3 -19,6 -30,10 -10,3 -21,7 -32,12 -12,4 -24,10 -37,16 -13,6 -26,14 -40,23 2,9 4,17 6,25 2,8 4,16 6,24 1,8 3,15 5,23 2,8 3,15 5,23 1,8 3,15 4,23 2,8 3,16 4,24 1,8 3,16 4,24 1,8 2,17 3,26 0,3 1,7 1,11 1,5 1,9 2,14 0,5 1,10 2,16 0,5 1,11 1,16 0,5 1,11 1,16 0,5 1,10 1,15 0,5 0,10 0,14 -1,4 -1,8 -1,12 -2,12 -7,26 -14,40 -7,14 -17,28 -28,42 -11,15 -24,29 -38,43 -14,13 -29,26 -45,38 -16,12 -32,23 -49,33 -16,9 -33,16 -49,22 -17,6 -32,9 -47,10 -15,1 -29,-1 -41,-6 -9,-4 -18,-9 -26,-15 -8,-5 -16,-12 -23,-19 -7,-7 -13,-15 -19,-24 -5,-8 -11,-17 -15,-27 -5,-9 -9,-19 -13,-28 -4,-10 -7,-20 -10,-30 -2,-10 -5,-20 -7,-30 -2,-10 -3,-19 -5,-29 -1,-8 -2,-18 -3,-29 0,-11 -1,-22 -1,-34 1,-12 1,-24 2,-37 1,-12 3,-24 5,-36 3,-12 6,-24 10,-35 4,-11 9,-21 15,-31 6,-9 12,-17 20,-24 8,-7 18,-12 28,-16 3,-1 6,-2 9,-3 3,0 6,-1 10,-1 3,-1 6,-1 9,-1 3,0 6,1 9,1 3,0 6,1 9,1 3,1 6,2 9,3 3,1 6,2 9,3 3,1 6,3 9,4 3,2 6,3 9,5 3,2 6,4 9,6 2,2 5,4 8,6 3,3 6,5 8,7 3,3 5,5 8,8 3,2 5,5 8,7 2,3 4,5 7,8 2,3 4,5 6,8 2,2 4,4 6,6 1,2 3,5 4,7 2,2 4,4 5,7 1,2 3,4 4,7 2,2 3,4 4,7 2,2 3,5 4,7 1,2 2,5 3,7 1,3 2,5 3,8 4,8 6,17 8,25 3,9 4,18 5,27 2,9 2,18 3,27 0,9 0,18 -1,27 0,9 -1,18 -2,27 -2,10 -3,19 -5,28 -2,9 -4,18 -7,27 -2,9 -5,18 -8,26zm-529 30c-1,-61 -9,-149 -25,-258 -16,-109 -38,-239 -66,-381 -28,-142 -62,-297 -100,-457 -38,-159 -80,-323 -125,-485 -45,-161 -92,-319 -141,-466 -49,-147 -99,-284 -150,-401 -50,-118 -100,-217 -149,-289 -49,-72 -96,-117 -141,-129 -2,-6 24,57 67,169 43,112 103,274 171,467 69,192 145,415 218,649 74,234 146,479 205,717 60,237 107,467 133,669 25,203 29,379 1,508 -29,129 -89,212 -191,230 -101,17 -245,-31 -440,-163 -32,-22 -63,-49 -92,-79 -29,-29 -56,-62 -81,-97 -26,-35 -50,-73 -73,-111 -24,-38 -46,-78 -67,-117 -22,-39 -43,-79 -63,-117 -21,-38 -41,-76 -61,-111 -20,-35 -41,-68 -61,-97 -21,-30 -42,-56 -64,-78 -2,71 17,154 52,240 34,87 84,177 144,265 61,89 131,175 208,252 76,77 157,145 238,197 82,53 163,90 240,105 76,15 148,9 209,-27 61,-35 112,-99 148,-197 35,-99 56,-233 56,-408zm3043 -2293c3,4 6,6 9,6 3,1 6,0 10,-2 3,-2 6,-4 10,-7 3,-3 6,-7 8,-10 2,-4 4,-7 5,-10 2,-3 2,-6 2,-7 -1,-2 -2,-3 -5,-2 -2,1 -6,3 -11,7 0,0 -2,-2 -4,-4 -3,-2 -7,-4 -11,-7 -4,-3 -9,-6 -13,-9 -5,-3 -10,-6 -14,-7 -4,-2 -7,-3 -9,-2 -3,0 -4,2 -3,5 0,4 2,10 6,18 5,8 11,18 20,31zm349 702l8 87 9 88 8 87 8 87 9 87 8 87 9 88 8 87 4 42 3 42 4 42 4 43 3 42 4 42 3 42 4 43c3,12 5,23 7,34 2,10 4,19 6,28 3,9 5,17 8,24 3,8 6,15 9,21 4,7 8,13 14,18 5,6 11,12 18,17 7,6 15,11 24,16 10,6 20,11 32,17 -10,-78 -19,-160 -29,-244 -9,-83 -19,-169 -29,-257 -9,-87 -19,-176 -30,-265 -10,-89 -22,-179 -34,-268 -12,-89 -25,-177 -39,-264 -14,-87 -30,-172 -47,-255 -17,-83 -35,-164 -56,-241 -20,-77 -43,-151 -67,-220 -6,-14 -12,-33 -20,-54 -8,-21 -18,-44 -29,-69 -10,-24 -22,-49 -35,-73 -12,-25 -26,-48 -40,-70 -15,-21 -30,-40 -46,-55 -15,-15 -32,-26 -48,-32 -17,-5 -34,-5 -51,2 -17,7 -34,21 -51,44 32,21 62,48 90,82 28,33 54,72 78,116 24,43 47,91 67,142 21,50 40,103 58,158 18,54 34,110 48,165 15,55 28,110 40,163 12,53 22,105 31,152 10,48 18,93 25,132zm-2297 1411c12,-3 23,-6 33,-10 10,-3 20,-7 28,-11 9,-4 17,-9 24,-13 7,-5 14,-10 20,-15 6,-6 12,-11 17,-17 5,-6 10,-12 15,-19 4,-6 9,-13 13,-20 4,-7 8,-14 12,-22 -11,1 -20,3 -30,5 -9,3 -18,5 -26,8 -9,4 -17,7 -24,11 -8,5 -15,9 -21,14 -7,6 -13,11 -19,17 -6,7 -11,13 -16,21 -5,7 -10,15 -14,23 -4,9 -8,18 -12,28zm2872 -722l6 -21 5 -20 6 -21 6 -20 5 -21 6 -21 5 -20 6 -21c6,8 12,17 17,29 5,11 10,23 15,37 5,13 11,28 16,42 6,15 12,30 20,44 7,15 15,29 25,42 10,13 21,25 34,35 13,11 27,20 44,26 17,6 37,10 58,12 17,1 33,-1 48,-5 16,-4 31,-11 46,-19 14,-8 28,-18 42,-29 13,-12 26,-25 37,-38 12,-14 23,-29 33,-44 10,-15 19,-30 27,-46 8,-16 15,-31 21,-47 5,-15 10,-30 13,-44 3,-17 6,-33 8,-48 2,-15 3,-29 2,-42 0,-13 -1,-25 -3,-36 -2,-11 -5,-21 -10,-31 -4,-10 -9,-19 -15,-28 -6,-9 -13,-18 -22,-26 -8,-9 -17,-17 -27,-26 -10,-8 -21,-16 -34,-25l-2 -4 -2 -3 -2 -4 -2 -4 -2 -3 -2 -4 -2 -4 -2 -3c-8,-1 -16,-1 -23,-1 -7,0 -13,-1 -19,-1 -6,0 -12,0 -18,0 -5,0 -10,1 -15,1 -5,0 -10,1 -15,2 -5,0 -10,1 -16,2 -5,1 -11,2 -17,4 -6,1 -12,3 -19,5 -10,2 -19,5 -27,7 -8,1 -15,3 -21,4 -6,2 -12,3 -16,5 -5,1 -9,3 -13,4 -3,2 -6,4 -9,7 -2,2 -4,6 -6,9 -2,4 -3,9 -5,14 -1,6 -2,12 -3,20l-10 -4 -10 -4 -9 -3 -10 -4 -9 -4 -10 -3 -9 -4 -10 -4c-4,-1 -8,-2 -11,-3 -2,-1 -4,-2 -6,-3 -1,-1 -3,-1 -4,-2 -1,-1 -2,-1 -3,-2 -1,0 -2,0 -4,-1 -1,0 -4,-1 -7,-1 -2,-1 -6,-2 -11,-2 -5,-1 -10,-2 -18,-3l-5 33 -6 33 -6 32 -6 33 -6 33 -6 33 -6 33 -5 32c-2,9 -4,18 -6,25 -1,8 -3,15 -6,21 -2,6 -4,11 -6,15 -2,5 -4,9 -6,12 -2,2 -4,5 -6,6 -2,1 -4,2 -6,1 -1,0 -3,-1 -4,-3 -2,-2 -3,-5 -4,-8 -15,-56 -30,-122 -45,-196 -14,-73 -29,-153 -44,-238 -15,-85 -30,-174 -46,-264 -15,-91 -31,-183 -46,-273 -16,-91 -32,-180 -49,-265 -17,-84 -34,-165 -52,-238 -17,-73 -36,-139 -54,-195 -19,-56 -39,-102 -59,-135 -9,9 -17,16 -23,22 -6,6 -11,11 -14,15 -4,5 -6,9 -8,13 -1,4 -2,8 -1,12 0,4 1,9 3,14 1,5 4,12 6,19 3,7 6,16 9,26 4,11 7,23 11,36 1,6 7,35 16,83 8,48 21,115 36,195 15,79 32,171 51,269 19,99 40,204 61,310 21,106 43,212 66,313 22,101 43,196 64,281 21,84 41,157 59,212 18,55 34,93 48,108 4,4 7,8 11,11 3,3 6,5 9,7 3,1 5,2 8,3 3,0 5,0 7,-1 3,-1 5,-3 7,-5 2,-3 4,-6 6,-10 2,-4 4,-9 6,-15 2,-5 4,-12 6,-19zm147 -306c13,-4 25,-8 37,-12 11,-5 22,-9 32,-13 10,-4 20,-8 30,-12 10,-3 19,-6 29,-8 10,-3 20,-4 30,-4 11,0 22,1 34,3 12,2 24,6 38,11 14,5 29,12 45,21 22,49 33,93 36,133 2,39 -4,74 -15,102 -12,29 -29,52 -50,69 -21,17 -45,28 -70,31 -24,4 -50,1 -74,-9 -24,-11 -46,-29 -65,-55 -18,-26 -31,-60 -39,-103 -7,-42 -7,-94 2,-154z"/>
  <path class="fil0" d="M5533 2803l38 149 39 149 -37 9 -36 10 -66 -259 -67 -259 32 -8 31 -8 6 8 6 9c25,39 53,77 82,113 29,37 60,72 93,105 17,16 33,32 51,47 17,16 34,31 52,45 -16,-61 -23,-122 -30,-182 -7,-60 -14,-121 -31,-183l37 -9 37 -9c22,83 34,164 47,245 13,82 25,163 47,246l-20 18 -20 18 -10 -7 -9 -6c-37,-25 -72,-52 -106,-80 -34,-28 -67,-58 -99,-90 -11,-11 -23,-23 -34,-35 -11,-12 -22,-24 -33,-36z"/>
  <path class="fil0" d="M5379 3044c-4,11 -9,22 -15,32 -5,11 -11,21 -18,31 -14,21 -30,42 -49,59 -19,18 -41,31 -67,38 -26,6 -50,3 -68,-8 -19,-11 -33,-30 -43,-55 -2,-7 -4,-13 -6,-20 -2,-7 -4,-13 -6,-20 -8,-34 -13,-69 -13,-103 0,-34 4,-69 12,-103 7,-31 17,-61 30,-89 13,-28 29,-55 48,-80 15,-21 32,-40 52,-56 20,-17 43,-29 68,-36 6,-1 11,-2 17,-3 6,-1 12,-1 17,-1l11 1 11 0 10 38 10 38 -20 -1 -19 -1c-3,0 -6,0 -9,1 -3,0 -6,1 -9,1 -17,5 -33,15 -47,27 -14,12 -26,26 -36,40 -15,21 -28,43 -38,67 -10,23 -18,47 -23,72 -7,29 -10,57 -10,85 0,28 4,56 11,84 1,5 3,11 5,17 1,5 3,11 5,16 3,7 5,11 8,13 4,2 8,2 15,1 19,-5 35,-18 48,-33 14,-16 25,-34 33,-49 17,-31 27,-64 34,-97 6,-33 7,-68 5,-102l-1 -10 0 -10 9 -4 9 -5c11,-5 24,-6 34,-2 11,3 19,12 23,25 3,9 6,18 8,27 3,9 5,18 7,27 4,15 8,30 12,45 4,15 7,30 11,45 4,16 8,31 11,47 4,16 7,31 10,47 2,7 4,17 5,26 1,10 1,20 -1,27l-7 18 -7 19 -30 -24 -29 -23 -1 -5 -2 -5c-2,-11 -5,-23 -7,-34 -3,-12 -5,-24 -8,-35z"/>
  <path class="fil0" d="M5082 3212l-33 22 -33 22c-18,-92 -38,-182 -61,-269 -22,-87 -47,-172 -73,-254l39 3 40 4 60 236 61 236z"/>
  <path class="fil0" d="M4658 2996c1,0 1,0 2,0 1,0 2,0 2,-1 8,-2 16,-4 24,-7 8,-3 16,-6 24,-8 10,-4 20,-7 30,-11 10,-3 21,-6 31,-9 19,-5 40,-8 60,-7 20,2 39,8 55,21 8,7 15,15 20,23 5,9 9,19 11,29 2,5 3,11 4,16 0,6 1,11 1,17 3,36 -4,69 -18,99 -14,31 -34,58 -59,83 -18,19 -40,37 -63,53 -23,17 -47,32 -69,45l-17 11 -17 10 -9 -38 -10 -38 9 -6 9 -6c12,-7 23,-14 35,-22 11,-7 23,-15 34,-23 7,-6 15,-12 22,-18 8,-6 15,-12 22,-18 17,-18 32,-37 42,-58 10,-21 15,-44 13,-69 0,-3 0,-5 -1,-8 0,-2 0,-5 -1,-7 -1,-3 -2,-5 -3,-7 -1,-3 -2,-5 -4,-6 -6,-5 -16,-6 -26,-6 -10,1 -20,3 -26,5 -9,2 -18,5 -27,8 -9,3 -18,6 -26,9 -9,3 -18,6 -27,9 -10,3 -19,6 -28,8 -13,4 -28,6 -42,5 -14,-2 -27,-6 -38,-17 -3,-4 -6,-7 -8,-11 -2,-5 -4,-9 -5,-14 -1,-4 -2,-9 -2,-14 -1,-5 -1,-9 0,-14l0 0 0 -1 0 0 0 0c2,-27 7,-54 17,-78 9,-25 23,-49 40,-70 17,-20 35,-37 57,-50 21,-13 44,-23 69,-30 3,-1 6,-1 9,-2 4,-1 7,-1 10,-2l13 -2 14 -3 9 36 9 36 -14 3 -14 4c-3,1 -6,1 -9,2 -3,1 -6,2 -8,2 -18,5 -35,12 -50,21 -14,9 -28,21 -39,35 -11,14 -20,28 -26,43 -6,15 -10,32 -11,48z"/>
  <path class="fil0" d="M4445 2813l10 41 10 42 -77 64 -76 65 8 31 8 32 81 -71 81 -71 11 41 11 40 -82 71 -81 72 18 73 19 73 86 -74 85 -74 10 41 11 41 -104 91 -104 90 -19 -11 -19 -11c-13,-73 -28,-144 -46,-213 -17,-68 -37,-134 -59,-198 39,-24 76,-54 111,-85 36,-32 71,-66 107,-100z"/>
  <path class="fil0" d="M3739 3186l-22 -9 -22 -10 12 -23 11 -23 -25 -38 -25 -38 56 -38 56 -38 8 11 8 12c28,-39 59,-78 94,-110 35,-32 74,-57 115,-68 12,-3 24,-5 36,-5 12,-1 24,0 36,2 32,6 55,24 72,49 17,24 28,54 35,82 8,30 12,60 14,90 1,30 0,60 -3,90 -3,34 -9,68 -18,101 -9,32 -20,64 -35,95 -17,35 -36,69 -56,102 -20,33 -42,65 -65,96 -15,19 -31,40 -48,59 -17,19 -36,38 -55,52l-11 9 -11 9 -24 -17 -24 -17c-11,-77 -25,-151 -43,-222 -18,-71 -40,-139 -66,-203zm95 -49c15,31 27,78 39,140 12,62 23,138 36,225 25,-30 50,-71 73,-113 23,-42 44,-84 61,-119 12,-25 22,-52 30,-79 7,-27 13,-55 16,-83 3,-23 6,-54 6,-84 1,-31 -1,-61 -6,-84 -2,-5 -5,-16 -9,-26 -5,-11 -11,-20 -17,-21 -5,-1 -10,-2 -14,-1 -5,0 -10,1 -15,2 -37,9 -77,53 -112,102 -36,50 -68,106 -88,141z"/>
 </g>
</svg>
